<?xml version="1.0" encoding="UTF-8"?>
<!DOCTYPE svg PUBLIC "-//W3C//DTD SVG 1.1//EN" "http://www.w3.org/Graphics/SVG/1.1/DTD/svg11.dtd">
<svg xmlns="http://www.w3.org/2000/svg" version="1.1" width="1262px" height="112px" style="shape-rendering:geometricPrecision; text-rendering:geometricPrecision; image-rendering:optimizeQuality; fill-rule:evenodd; clip-rule:evenodd" xmlns:xlink="http://www.w3.org/1999/xlink">
<g><path style="opacity:1" fill="#8e7638" d="M -0.5,-0.5 C 420.167,-0.5 840.833,-0.5 1261.5,-0.5C 1261.5,36.8333 1261.5,74.1667 1261.5,111.5C 840.833,111.5 420.167,111.5 -0.5,111.5C -0.5,74.1667 -0.5,36.8333 -0.5,-0.5 Z"/></g>
<g><path style="opacity:1" fill="#907941" d="M 71.5,31.5 C 71.6309,30.6236 71.2975,29.9569 70.5,29.5C 69.2613,29.9424 68.2613,30.6091 67.5,31.5C 64.3469,34.4751 62.8469,38.1417 63,42.5C 66.398,45.1875 69.5647,44.8542 72.5,41.5C 71.4647,43.205 71.4647,44.8716 72.5,46.5C 68.8566,47.1163 65.1899,46.783 61.5,45.5C 57.413,44.8589 53.413,45.5256 49.5,47.5C 49.6261,45.8002 50.2927,44.3002 51.5,43C 49.6863,39.0581 50.6863,36.2248 54.5,34.5C 50.1594,43.2189 52.3261,45.8855 61,42.5C 61.9855,39.2583 61.1522,36.5917 58.5,34.5C 59.1667,33.5 59.8333,32.5 60.5,31.5C 60.1667,31.1667 59.8333,30.8333 59.5,30.5C 57.6396,31.2599 55.973,32.2599 54.5,33.5C 51.8951,31.2396 52.0618,28.9062 55,26.5C 55.7247,27.0585 56.5581,27.3918 57.5,27.5C 59.3254,26.3489 61.3254,25.6822 63.5,25.5C 63.2222,27.3464 63.8888,28.6798 65.5,29.5C 65.781,27.3433 67.281,25.6766 70,24.5C 71.5122,25.2567 72.8455,26.2567 74,27.5C 74.3333,27.1667 74.6667,26.8333 75,26.5C 76.9245,29.9513 75.7579,31.618 71.5,31.5 Z"/></g>
<g><path style="opacity:1" fill="#dac798" d="M 71.5,31.5 C 71.1583,32.3382 70.4916,32.6716 69.5,32.5C 69.1583,31.6618 68.4916,31.3284 67.5,31.5C 68.2613,30.6091 69.2613,29.9424 70.5,29.5C 71.2975,29.9569 71.6309,30.6236 71.5,31.5 Z"/></g>
<g><path style="opacity:1" fill="#f8f2e7" d="M 1180.5,29.5 C 1184.1,28.9376 1186.1,30.4376 1186.5,34C 1185.99,38.6852 1183.65,42.1852 1179.5,44.5C 1179.17,44.1667 1178.83,43.8333 1178.5,43.5C 1179.17,42.5 1179.83,41.5 1180.5,40.5C 1176.51,36.7976 1176.51,33.1309 1180.5,29.5 Z"/></g>
<g><path style="opacity:1" fill="#98834e" d="M 452.5,36.5 C 451.717,40.1458 451.55,43.8125 452,47.5C 452.949,45.9069 454.115,44.5736 455.5,43.5C 455.368,46.7967 453.702,48.4633 450.5,48.5C 450.5,45.5 450.5,42.5 450.5,39.5C 448.388,38.7249 446.388,38.7249 444.5,39.5C 445.007,38.1411 446.007,37.1411 447.5,36.5C 442.544,35.5059 437.544,35.1725 432.5,35.5C 437.64,34.5119 442.974,34.1786 448.5,34.5C 448.5,33.5 448.5,32.5 448.5,31.5C 451.613,31.0646 452.279,32.0646 450.5,34.5C 450.747,35.7133 451.414,36.38 452.5,36.5 Z"/></g>
<g><path style="opacity:1" fill="#ab9776" d="M 99.5,34.5 C 95.8019,34.5524 92.1352,34.8857 88.5,35.5C 90.2897,34.0027 92.4563,33.336 95,33.5C 96.7067,33.5085 98.2067,33.8418 99.5,34.5 Z"/></g>
<g><path style="opacity:1" fill="#a39369" d="M 181.5,35.5 C 176.167,34.1667 170.833,34.1667 165.5,35.5C 167.807,33.9532 170.473,33.2865 173.5,33.5C 176.527,33.2865 179.193,33.9532 181.5,35.5 Z"/></g>
<g><path style="opacity:1" fill="#a08b66" d="M 346.5,34.5 C 341.438,34.2743 336.438,34.6076 331.5,35.5C 331.611,34.8826 331.944,34.3826 332.5,34C 337.352,33.1849 342.019,33.3516 346.5,34.5 Z"/></g>
<g><path style="opacity:1" fill="#97855f" d="M 730.5,34.5 C 734.311,33.3547 738.311,33.1881 742.5,34C 743.252,34.6708 743.586,35.5041 743.5,36.5C 739.364,34.8166 735.031,34.1499 730.5,34.5 Z"/></g>
<g><path style="opacity:1" fill="#eedec0" d="M 221.5,37.5 C 221.179,35.9519 220.179,35.2852 218.5,35.5C 219.261,34.6091 220.261,33.9424 221.5,33.5C 222.782,34.9584 222.782,36.2918 221.5,37.5 Z"/></g>
<g><path style="opacity:1" fill="#ae9d75" d="M 273.5,34.5 C 273.5,34.8333 273.5,35.1667 273.5,35.5C 264.827,35.3336 256.16,35.5002 247.5,36C 248.056,36.3826 248.389,36.8826 248.5,37.5C 246.952,37.1788 246.285,36.1788 246.5,34.5C 255.5,34.5 264.5,34.5 273.5,34.5 Z"/></g>
<g><path style="opacity:1" fill="#ac9c6e" d="M 312.5,34.5 C 312.737,35.791 312.404,36.791 311.5,37.5C 308.572,36.1803 305.239,35.5136 301.5,35.5C 297.761,35.5136 294.428,36.1803 291.5,37.5C 290.596,36.791 290.263,35.791 290.5,34.5C 297.833,34.5 305.167,34.5 312.5,34.5 Z"/></g>
<g><path style="opacity:1" fill="#90773f" d="M 321.5,41.5 C 313.375,52.4661 312.709,63.7994 319.5,75.5C 318.21,76.0577 317.377,77.0577 317,78.5C 316.374,76.0087 315.541,76.0087 314.5,78.5C 314.167,78 313.833,77.5 313.5,77C 315.679,71.4681 314.513,66.9681 310,63.5C 309.415,58.489 308.749,53.489 308,48.5C 307.586,48.0426 307.086,47.7093 306.5,47.5C 305.684,51.9795 305.017,56.4795 304.5,61C 305.299,63.149 306.133,65.3157 307,67.5C 310.107,69.7135 311.607,72.7135 311.5,76.5C 310.5,76.5 309.5,76.5 308.5,76.5C 308.715,78.1788 308.048,79.1788 306.5,79.5C 305.307,77.9459 304.14,76.2792 303,74.5C 302.412,69.4724 302.578,64.4724 303.5,59.5C 303.225,51.616 304.892,44.2827 308.5,37.5C 309.5,37.5 310.5,37.5 311.5,37.5C 312.404,36.791 312.737,35.791 312.5,34.5C 313.774,33.8106 313.774,32.9772 312.5,32C 316.783,32.1609 319.783,34.3276 321.5,38.5C 321.167,38.8333 320.833,39.1667 320.5,39.5C 318.293,37.6904 315.959,37.357 313.5,38.5C 313.709,39.086 314.043,39.586 314.5,40C 316.866,40.4396 319.199,40.9396 321.5,41.5 Z"/></g>
<g><path style="opacity:1" fill="#ac9e6e" d="M 416.5,35.5 C 412.486,35.3345 408.486,35.5012 404.5,36C 405.056,36.3826 405.389,36.8826 405.5,37.5C 403.952,37.1788 403.285,36.1788 403.5,34.5C 408.032,34.1818 412.366,34.5151 416.5,35.5 Z"/></g>
<g><path style="opacity:1" fill="#aa9c6b" d="M 554.5,35.5 C 549.706,34.9031 545.373,35.5698 541.5,37.5C 540.596,36.791 540.263,35.791 540.5,34.5C 545.363,34.1805 550.03,34.5139 554.5,35.5 Z"/></g>
<g><path style="opacity:1" fill="#ad9f77" d="M 584.5,35.5 C 579.381,34.8969 574.715,35.5636 570.5,37.5C 569.596,36.791 569.263,35.791 569.5,34.5C 574.695,34.1795 579.695,34.5128 584.5,35.5 Z"/></g>
<g><path style="opacity:1" fill="#ae9d70" d="M 687.5,35.5 C 694.313,34.5088 701.313,34.1755 708.5,34.5C 708.737,35.791 708.404,36.791 707.5,37.5C 701.25,35.5411 694.584,34.8745 687.5,35.5 Z"/></g>
<g><path style="opacity:1" fill="#ac9b73" d="M 804.5,35.5 C 795.105,34.8623 786.105,35.5289 777.5,37.5C 776.596,36.791 776.263,35.791 776.5,34.5C 786.015,34.1731 795.348,34.5064 804.5,35.5 Z"/></g>
<g><path style="opacity:1" fill="#aa9a72" d="M 858.5,35.5 C 846.784,34.8556 835.451,35.5223 824.5,37.5C 823.596,36.791 823.263,35.791 823.5,34.5C 835.345,34.1717 847.012,34.5051 858.5,35.5 Z"/></g>
<g><path style="opacity:1" fill="#ab9d71" d="M 908.5,35.5 C 900.16,35.3336 891.827,35.5003 883.5,36C 884.056,36.3826 884.389,36.8826 884.5,37.5C 882.952,37.1788 882.285,36.1788 882.5,34.5C 891.349,34.1736 900.016,34.507 908.5,35.5 Z"/></g>
<g><path style="opacity:1" fill="#ac9e72" d="M 1068.5,35.5 C 1061.16,35.3337 1053.83,35.5003 1046.5,36C 1047.06,36.3826 1047.39,36.8826 1047.5,37.5C 1045.95,37.1788 1045.29,36.1788 1045.5,34.5C 1053.35,34.1746 1061.02,34.508 1068.5,35.5 Z"/></g>
<g><path style="opacity:1" fill="#ad9c76" d="M 1094.5,35.5 C 1089.06,34.8917 1084.06,35.5583 1079.5,37.5C 1078.6,36.791 1078.26,35.791 1078.5,34.5C 1084.03,34.1786 1089.36,34.5119 1094.5,35.5 Z"/></g>
<g><path style="opacity:1" fill="#ae9c6f" d="M 1119.5,37.5 C 1116.57,36.1803 1113.24,35.5136 1109.5,35.5C 1105.76,35.5136 1102.43,36.1803 1099.5,37.5C 1098.6,36.791 1098.26,35.791 1098.5,34.5C 1105.83,34.5 1113.17,34.5 1120.5,34.5C 1120.74,35.791 1120.4,36.791 1119.5,37.5 Z"/></g>
<g><path style="opacity:1" fill="#ede0ca" d="M 99.5,34.5 C 101.403,34.7959 103.07,35.4625 104.5,36.5C 103.127,36.3433 101.793,36.51 100.5,37C 101.252,37.6708 101.586,38.5041 101.5,39.5C 98.0245,36.1312 94.3578,35.7978 90.5,38.5C 90.5299,37.5028 90.0299,36.8361 89,36.5C 87.8615,36.9891 86.6948,37.3225 85.5,37.5C 85.9731,36.0937 86.9731,35.427 88.5,35.5C 92.1352,34.8857 95.8019,34.5524 99.5,34.5 Z"/></g>
<g><path style="opacity:1" fill="#f3e9da" d="M 273.5,35.5 C 281.343,38.1039 283.343,43.1039 279.5,50.5C 280.159,47.5448 280.492,44.5448 280.5,41.5C 277.553,40.5954 274.887,39.0954 272.5,37C 270.934,36.235 269.601,36.4017 268.5,37.5C 265.833,37.5 263.167,37.5 260.5,37.5C 257.024,36.3567 253.358,36.1901 249.5,37C 250.252,37.6708 250.586,38.5041 250.5,39.5C 249.5,39.1667 248.833,38.5 248.5,37.5C 248.389,36.8826 248.056,36.3826 247.5,36C 256.16,35.5002 264.827,35.3336 273.5,35.5 Z"/></g>
<g><path style="opacity:1" fill="#f2e5d5" d="M 311.5,37.5 C 310.5,37.5 309.5,37.5 308.5,37.5C 304.019,36.3516 299.352,36.1849 294.5,37C 295.252,37.6708 295.586,38.5041 295.5,39.5C 294.395,38.3995 293.062,37.7329 291.5,37.5C 294.428,36.1803 297.761,35.5136 301.5,35.5C 305.239,35.5136 308.572,36.1803 311.5,37.5 Z"/></g>
<g><path style="opacity:1" fill="#f0e6d6" d="M 665.5,36.5 C 663.265,36.2053 661.265,36.5386 659.5,37.5C 657.167,37.5 654.833,37.5 652.5,37.5C 649.024,36.3567 645.358,36.1901 641.5,37C 642.252,37.6708 642.586,38.5041 642.5,39.5C 641.185,38.5244 639.852,37.5244 638.5,36.5C 647.658,35.1782 656.658,35.1782 665.5,36.5 Z"/></g>
<g><path style="opacity:1" fill="#eee8d3" d="M 804.5,35.5 C 805.5,36.1667 806.5,36.8333 807.5,37.5C 804.648,36.7417 801.981,36.7417 799.5,37.5C 796.5,37.5 793.5,37.5 790.5,37.5C 787.024,36.3567 783.358,36.1901 779.5,37C 780.252,37.6708 780.586,38.5041 780.5,39.5C 779.5,38.8333 778.5,38.1667 777.5,37.5C 786.105,35.5289 795.105,34.8623 804.5,35.5 Z"/></g>
<g><path style="opacity:1" fill="#f0e8d8" d="M 1119.5,37.5 C 1118.04,37.4326 1116.71,37.7659 1115.5,38.5C 1113.78,37.1999 1111.61,36.5332 1109,36.5C 1106.83,36.6667 1104.67,36.8333 1102.5,37C 1103.25,37.6708 1103.59,38.5041 1103.5,39.5C 1102.4,38.3995 1101.06,37.7329 1099.5,37.5C 1102.43,36.1803 1105.76,35.5136 1109.5,35.5C 1113.24,35.5136 1116.57,36.1803 1119.5,37.5 Z"/></g>
<g><path style="opacity:1" fill="#f6f0e6" d="M 1190.5,29.5 C 1194.2,28.6798 1196.53,30.0131 1197.5,33.5C 1196.32,38.1602 1193.82,41.8269 1190,44.5C 1189.5,44.3333 1189,44.1667 1188.5,44C 1189.57,43.2613 1190.24,42.2613 1190.5,41C 1186.57,37.1931 1186.57,33.3597 1190.5,29.5 Z"/></g>
<g><path style="opacity:1" fill="#f8f4eb" d="M 67.5,31.5 C 68.4916,31.3284 69.1583,31.6618 69.5,32.5C 69.1961,33.1499 68.8627,33.8165 68.5,34.5C 71.5471,35.8751 72.8804,38.2084 72.5,41.5C 69.5647,44.8542 66.398,45.1875 63,42.5C 62.8469,38.1417 64.3469,34.4751 67.5,31.5 Z"/></g>
<g><path style="opacity:1" fill="#fdfdfa" d="M 217.5,35.5 C 217.833,35.5 218.167,35.5 218.5,35.5C 220.179,35.2852 221.179,35.9519 221.5,37.5C 221.483,39.5648 221.15,41.5648 220.5,43.5C 212.833,43.5 205.167,43.5 197.5,43.5C 197.5,41.1667 197.5,38.8333 197.5,36.5C 204.354,36.824 211.021,36.4907 217.5,35.5 Z"/></g>
<g><path style="opacity:1" fill="#faf8f2" d="M 260.5,37.5 C 259.771,42.1304 259.437,46.7971 259.5,51.5C 258.566,52.5676 258.232,53.901 258.5,55.5C 261.385,55.8064 264.052,55.4731 266.5,54.5C 272.424,50.9607 273.924,45.9607 271,39.5C 270.292,38.6195 269.458,37.9528 268.5,37.5C 269.601,36.4017 270.934,36.235 272.5,37C 274.887,39.0954 277.553,40.5954 280.5,41.5C 280.492,44.5448 280.159,47.5448 279.5,50.5C 278.833,52.5 277.5,53.8333 275.5,54.5C 274.624,54.3691 273.957,54.7025 273.5,55.5C 274.325,56.3857 275.325,56.719 276.5,56.5C 277.167,56.8333 277.833,57.1667 278.5,57.5C 281.642,63.4418 280.975,68.9418 276.5,74C 275.667,74.1667 274.833,74.3333 274,74.5C 272.624,74.3158 271.791,73.6491 271.5,72.5C 272.412,68.8694 272.579,65.2027 272,61.5C 270.568,59.5612 268.735,58.2279 266.5,57.5C 264.052,56.5269 261.385,56.1936 258.5,56.5C 257.998,61.3468 257.331,66.1801 256.5,71C 256.514,72.3847 256.848,73.5514 257.5,74.5C 257.5,74.8333 257.5,75.1667 257.5,75.5C 257.5,76.5 257.5,77.5 257.5,78.5C 252.305,78.8205 247.305,78.4872 242.5,77.5C 244.934,76.2287 246.434,74.2287 247,71.5C 247.771,65.4803 248.605,59.4803 249.5,53.5C 251.163,48.8798 251.497,44.2131 250.5,39.5C 250.586,38.5041 250.252,37.6708 249.5,37C 253.358,36.1901 257.024,36.3567 260.5,37.5 Z"/></g>
<g><path style="opacity:1" fill="#fcfbf8" d="M 308.5,37.5 C 304.892,44.2827 303.225,51.616 303.5,59.5C 302.207,60.842 301.374,62.5087 301,64.5C 300.346,63.3044 299.846,63.3044 299.5,64.5C 301.114,69.0199 301.78,73.6866 301.5,78.5C 299.234,78.8588 297.401,78.1922 296,76.5C 295.667,76.8333 295.333,77.1667 295,77.5C 293.646,73.6372 293.146,69.6372 293.5,65.5C 293.194,62.6146 293.527,59.9479 294.5,57.5C 295.702,53.1778 296.702,48.6778 297.5,44C 297.693,41.9919 297.026,40.4919 295.5,39.5C 295.586,38.5041 295.252,37.6708 294.5,37C 299.352,36.1849 304.019,36.3516 308.5,37.5 Z"/></g>
<g><path style="opacity:1" fill="#eddec8" d="M 346.5,34.5 C 346.5,34.8333 346.5,35.1667 346.5,35.5C 345.209,35.2627 344.209,35.596 343.5,36.5C 339.009,35.8851 335.009,36.8851 331.5,39.5C 331.53,38.5028 331.03,37.8361 330,37.5C 328.862,37.9891 327.695,38.3225 326.5,38.5C 327.913,37.0652 329.58,36.0652 331.5,35.5C 336.438,34.6076 341.438,34.2743 346.5,34.5 Z"/></g>
<g><path style="opacity:1" fill="#fdfcf8" d="M 366.5,35.5 C 366.833,35.5 367.167,35.5 367.5,35.5C 369.833,36.1667 372.167,36.8333 374.5,37.5C 374.54,40.8806 374.207,44.2139 373.5,47.5C 372.634,50.4243 371.634,53.4243 370.5,56.5C 369.604,55.4937 368.938,55.4937 368.5,56.5C 369.5,57.1667 370.5,57.8333 371.5,58.5C 370.617,59.548 369.95,60.7147 369.5,62C 370.072,65.985 370.739,69.8183 371.5,73.5C 371.5,74.1667 371.833,74.5 372.5,74.5C 372.804,75.1499 373.137,75.8165 373.5,76.5C 379.808,78.6805 385.142,77.3472 389.5,72.5C 390.458,72.0472 391.292,71.3805 392,70.5C 392.483,71.448 392.649,72.448 392.5,73.5C 391.962,75.1172 391.629,76.7839 391.5,78.5C 379.655,78.8283 367.988,78.4949 356.5,77.5C 357.167,77.5 357.833,77.5 358.5,77.5C 360.752,77.0844 362.252,75.751 363,73.5C 363.497,70.854 363.664,68.1873 363.5,65.5C 363.5,63.5 363.5,61.5 363.5,59.5C 365.671,51.6262 366.671,43.6262 366.5,35.5 Z"/></g>
<g><path style="opacity:1" fill="#faf8f3" d="M 416.5,35.5 C 423.474,43.4322 429.474,52.0989 434.5,61.5C 434.821,63.0481 435.821,63.7148 437.5,63.5C 437.5,64.8333 437.5,66.1667 437.5,67.5C 437.5,69.8333 437.5,72.1667 437.5,74.5C 436.71,75.6085 436.21,76.9419 436,78.5C 435.329,77.7476 434.496,77.4142 433.5,77.5C 427.5,68.5 421.5,59.5 415.5,50.5C 415.715,48.8212 415.048,47.8212 413.5,47.5C 413.167,46.8333 412.833,46.1667 412.5,45.5C 411.116,43.2969 409.449,41.2969 407.5,39.5C 407.167,38.5 406.5,37.8333 405.5,37.5C 405.389,36.8826 405.056,36.3826 404.5,36C 408.486,35.5012 412.486,35.3345 416.5,35.5 Z"/></g>
<g><path style="opacity:1" fill="#f8f3ed" d="M 432.5,35.5 C 437.544,35.1725 442.544,35.5059 447.5,36.5C 446.007,37.1411 445.007,38.1411 444.5,39.5C 443.5,40.1667 442.5,40.8333 441.5,41.5C 440.5,41.5 439.5,41.5 438.5,41.5C 436.424,39.4848 434.424,37.4848 432.5,35.5 Z"/></g>
<g><path style="opacity:1" fill="#fbfaf4" d="M 508.5,35.5 C 509.833,36.1667 511.167,36.8333 512.5,37.5C 511.521,40.6248 511.187,43.9581 511.5,47.5C 510.521,50.6248 510.187,53.9581 510.5,57.5C 508.535,63.1001 508.202,68.7667 509.5,74.5C 509.953,75.4584 510.619,76.2917 511.5,77C 518.83,78.4996 524.163,75.9996 527.5,69.5C 530.836,65.4282 531.836,66.0949 530.5,71.5C 529.651,73.8876 528.651,76.2209 527.5,78.5C 517.161,78.6665 506.828,78.4998 496.5,78C 498.919,76.4912 499.919,74.3245 499.5,71.5C 499.194,68.6146 499.527,65.9479 500.5,63.5C 501.801,57.3553 502.801,51.0219 503.5,44.5C 503.493,42.6307 503.16,40.964 502.5,39.5C 501.185,38.5244 499.852,37.5244 498.5,36.5C 501.768,35.513 505.102,35.1796 508.5,35.5 Z"/></g>
<g><path style="opacity:1" fill="#faf8f2" d="M 554.5,35.5 C 560.748,44.328 566.748,53.328 572.5,62.5C 574.148,64.4559 574.815,66.7892 574.5,69.5C 574.662,71.5273 574.495,73.5273 574,75.5C 573.764,77.1193 572.931,78.1193 571.5,78.5C 563.833,67.1667 556.167,55.8333 548.5,44.5C 548.44,43.9569 548.107,43.6236 547.5,43.5C 546.571,44.6888 546.238,46.0222 546.5,47.5C 545.833,44.8333 545.167,42.1667 544.5,39.5C 544.027,38.0937 543.027,37.427 541.5,37.5C 545.373,35.5698 549.706,34.9031 554.5,35.5 Z"/></g>
<g><path style="opacity:1" fill="#f6f0e3" d="M 584.5,35.5 C 582.221,37.9589 580.054,40.6256 578,43.5C 577.565,48.184 577.065,52.8507 576.5,57.5C 575.527,55.0521 575.194,52.3854 575.5,49.5C 575.82,46.1016 575.487,42.7683 574.5,39.5C 573.378,38.3698 572.044,37.7031 570.5,37.5C 574.715,35.5636 579.381,34.8969 584.5,35.5 Z"/></g>
<g><path style="opacity:1" fill="#cbbb9d" d="M 612.5,39.5 C 611.842,38.6016 611.176,37.6016 610.5,36.5C 609.817,36.8627 609.15,37.1961 608.5,37.5C 609.183,35.8235 610.517,35.1568 612.5,35.5C 612.5,36.8333 612.5,38.1667 612.5,39.5 Z"/></g>
<g><path style="opacity:1" fill="#ede4ce" d="M 687.5,35.5 C 694.584,34.8745 701.25,35.5411 707.5,37.5C 706.391,37.5569 705.391,37.8902 704.5,38.5C 702.603,37.1952 700.269,36.5286 697.5,36.5C 695.167,36.6667 692.833,36.8333 690.5,37C 691.252,37.6708 691.586,38.5041 691.5,39.5C 689.659,38.5977 688.326,37.2644 687.5,35.5 Z"/></g>
<g><path style="opacity:1" fill="#fbf9f5" d="M 704.5,38.5 C 702.864,39.7489 701.697,41.4156 701,43.5C 700.502,46.4816 700.335,49.4816 700.5,52.5C 698.461,60.1107 698.128,67.7774 699.5,75.5C 700.167,76.1667 700.833,76.8333 701.5,77.5C 695.5,78.8333 689.5,78.8333 683.5,77.5C 686.556,75.737 688.389,73.0703 689,69.5C 690.909,59.6336 691.743,49.6336 691.5,39.5C 691.586,38.5041 691.252,37.6708 690.5,37C 692.833,36.8333 695.167,36.6667 697.5,36.5C 700.269,36.5286 702.603,37.1952 704.5,38.5 Z"/></g>
<g><path style="opacity:1" fill="#fbf9f4" d="M 855.5,43.5 C 853.806,41.1394 851.806,39.1394 849.5,37.5C 851.948,36.5269 854.615,36.1936 857.5,36.5C 858.01,39.3878 857.344,41.7211 855.5,43.5 Z"/></g>
<g><path style="opacity:1" fill="#efe7d5" d="M 957.5,35.5 C 957.5,35.8333 957.5,36.1667 957.5,36.5C 956.448,36.3505 955.448,36.5172 954.5,37C 955.823,37.8159 956.489,38.9826 956.5,40.5C 955.078,39.075 953.411,38.075 951.5,37.5C 946.25,35.7824 942.25,37.449 939.5,42.5C 939.306,40.0882 937.973,39.0882 935.5,39.5C 936.845,37.3085 938.845,35.9752 941.5,35.5C 946.853,34.2647 952.187,34.2647 957.5,35.5 Z"/></g>
<g><path style="opacity:1" fill="#928150" d="M 957.5,36.5 C 957.5,36.1667 957.5,35.8333 957.5,35.5C 959.591,35.3184 961.591,35.6518 963.5,36.5C 964.815,38.3159 966.315,39.9825 968,41.5C 968.497,44.146 968.664,46.8127 968.5,49.5C 967.883,42.6054 964.216,38.2721 957.5,36.5 Z"/></g>
<g><path style="opacity:1" fill="#faf7f1" d="M 991.5,40.5 C 990.677,43.4606 990.01,46.4606 989.5,49.5C 987.789,53.8807 987.123,58.5474 987.5,63.5C 987.334,67.5138 987.501,71.5138 988,75.5C 995.226,78.984 1001.56,77.6507 1007,71.5C 1010.03,64.6331 1011.03,64.9664 1010,72.5C 1009.43,74.7226 1008.6,76.7226 1007.5,78.5C 996.828,78.6665 986.161,78.4998 975.5,78C 977.107,76.951 977.773,75.451 977.5,73.5C 978.243,63.9784 979.243,54.4784 980.5,45C 980.697,42.1755 980.031,39.6755 978.5,37.5C 982.981,36.3516 987.648,36.1849 992.5,37C 991.663,38.0113 991.33,39.1779 991.5,40.5 Z"/></g>
<g><path style="opacity:1" fill="#fbf9f5" d="M 1041.5,35.5 C 1038.32,36.8389 1035.82,39.1722 1034,42.5C 1033.17,48.4771 1032.67,54.4771 1032.5,60.5C 1031.35,65.3158 1031.18,70.3158 1032,75.5C 1032.38,76.056 1032.88,76.3893 1033.5,76.5C 1033.5,77.1667 1033.83,77.5 1034.5,77.5C 1028.5,78.8333 1022.5,78.8333 1016.5,77.5C 1018.19,76.4726 1019.53,75.1392 1020.5,73.5C 1021.22,73.0825 1021.72,72.4158 1022,71.5C 1022.5,68.854 1022.66,66.1873 1022.5,63.5C 1023.48,60.0381 1023.81,56.3714 1023.5,52.5C 1024.53,50.0524 1025.2,47.3857 1025.5,44.5C 1025.56,42.4434 1024.9,40.7767 1023.5,39.5C 1022.99,38.1411 1021.99,37.1411 1020.5,36.5C 1027.47,35.503 1034.47,35.1697 1041.5,35.5 Z"/></g>
<g><path style="opacity:1" fill="#faf8f3" d="M 1068.5,35.5 C 1066.26,36.9296 1064.42,38.9296 1063,41.5C 1062.26,43.8805 1062.76,45.8805 1064.5,47.5C 1066.65,53.9401 1068.98,60.2734 1071.5,66.5C 1071.5,67.5 1071.5,68.5 1071.5,69.5C 1069.56,72.3786 1067.9,75.3786 1066.5,78.5C 1065.22,78.2178 1064.22,77.5511 1063.5,76.5C 1061.69,70.4104 1059.69,64.4104 1057.5,58.5C 1056.07,52.8587 1054.07,47.5254 1051.5,42.5C 1050.92,40.2512 1049.59,38.5846 1047.5,37.5C 1047.39,36.8826 1047.06,36.3826 1046.5,36C 1053.83,35.5003 1061.16,35.3337 1068.5,35.5 Z"/></g>
<g><path style="opacity:1" fill="#958155" d="M 1068.5,35.5 C 1070.1,35.3118 1071.44,35.8118 1072.5,37C 1066.77,38.3205 1064.1,41.8205 1064.5,47.5C 1062.76,45.8805 1062.26,43.8805 1063,41.5C 1064.42,38.9296 1066.26,36.9296 1068.5,35.5 Z"/></g>
<g><path style="opacity:1" fill="#fcfaf7" d="M 1115.5,38.5 C 1114.56,40.0495 1113.89,41.7162 1113.5,43.5C 1112.03,47.9192 1111.36,52.5859 1111.5,57.5C 1110.35,63.3188 1110.18,69.3188 1111,75.5C 1111.72,76.0442 1112.22,76.7109 1112.5,77.5C 1107.68,78.6497 1102.68,78.8163 1097.5,78C 1098.93,77.5348 1100.1,76.7014 1101,75.5C 1101.71,70.2282 1102.87,65.0615 1104.5,60C 1103.97,57.1834 1103.64,54.35 1103.5,51.5C 1103.5,47.5 1103.5,43.5 1103.5,39.5C 1103.59,38.5041 1103.25,37.6708 1102.5,37C 1104.67,36.8333 1106.83,36.6667 1109,36.5C 1111.61,36.5332 1113.78,37.1999 1115.5,38.5 Z"/></g>
<g><path style="opacity:1" fill="#f9f5ee" d="M 54.5,34.5 C 54.5,34.1667 54.5,33.8333 54.5,33.5C 55.973,32.2599 57.6396,31.2599 59.5,30.5C 59.8333,30.8333 60.1667,31.1667 60.5,31.5C 59.8333,32.5 59.1667,33.5 58.5,34.5C 61.1522,36.5917 61.9855,39.2583 61,42.5C 52.3261,45.8855 50.1594,43.2189 54.5,34.5 Z"/></g>
<g><path style="opacity:1" fill="#f9f5ee" d="M 168.5,37.5 C 167.542,37.9528 166.708,38.6195 166,39.5C 165.502,42.8168 165.335,46.1501 165.5,49.5C 164.508,51.0265 163.008,51.6932 161,51.5C 159.342,51.3248 158.009,50.6582 157,49.5C 156.312,44.3518 158.145,40.3518 162.5,37.5C 164.653,36.4271 166.653,36.4271 168.5,37.5 Z"/></g>
<g><path style="opacity:1" fill="#f0e8d1" d="M 181.5,35.5 C 183.123,36.7794 184.79,38.1128 186.5,39.5C 187.393,42.0841 187.726,44.7508 187.5,47.5C 187.167,47.5 186.833,47.5 186.5,47.5C 186.947,42.0569 184.614,38.7236 179.5,37.5C 178.893,37.6236 178.56,37.9569 178.5,38.5C 176.693,37.3852 174.693,36.7186 172.5,36.5C 171.274,36.5195 170.274,36.8529 169.5,37.5C 169.167,37.5 168.833,37.5 168.5,37.5C 166.653,36.4271 164.653,36.4271 162.5,37.5C 162.973,36.0937 163.973,35.427 165.5,35.5C 170.833,34.1667 176.167,34.1667 181.5,35.5 Z"/></g>
<g><path style="opacity:1" fill="#f8f1e8" d="M 346.5,35.5 C 348.677,35.5861 350.677,36.2528 352.5,37.5C 353.833,41.5 353.833,45.5 352.5,49.5C 350.711,44.23 347.711,39.8967 343.5,36.5C 344.209,35.596 345.209,35.2627 346.5,35.5 Z"/></g>
<g><path style="opacity:1" fill="#f2ecdc" d="M 508.5,35.5 C 516.5,35.5 524.5,35.5 532.5,35.5C 532.824,39.5546 532.491,43.5546 531.5,47.5C 527.932,39.2131 521.599,35.8798 512.5,37.5C 511.167,36.8333 509.833,36.1667 508.5,35.5 Z"/></g>
<g><path style="opacity:1" fill="#f1e8d4" d="M 730.5,34.5 C 735.031,34.1499 739.364,34.8166 743.5,36.5C 744.167,37.1667 744.833,37.8333 745.5,38.5C 744.022,38.238 742.689,38.5713 741.5,39.5C 743.05,43.309 743.716,47.309 743.5,51.5C 743.722,55.7968 743.055,59.7968 741.5,63.5C 742.599,56.4701 742.599,49.4701 741.5,42.5C 738.653,37.1047 734.319,35.4381 728.5,37.5C 726.312,36.3773 723.979,36.3773 721.5,37.5C 723.919,35.1376 726.919,34.1376 730.5,34.5 Z"/></g>
<g><path style="opacity:1" fill="#f1e9d6" d="M 991.5,40.5 C 991.33,39.1779 991.663,38.0113 992.5,37C 987.648,36.1849 982.981,36.3516 978.5,37.5C 977.624,37.6309 976.957,37.2975 976.5,36.5C 983.5,35.1667 990.5,35.1667 997.5,36.5C 995.216,37.4584 993.216,38.7917 991.5,40.5 Z"/></g>
<g><path style="opacity:1" fill="#9c8758" d="M 1041.5,35.5 C 1034.47,35.1697 1027.47,35.503 1020.5,36.5C 1021.99,37.1411 1022.99,38.1411 1023.5,39.5C 1019.5,40.1667 1017.83,38.5 1018.5,34.5C 1026.35,34.1746 1034.02,34.508 1041.5,35.5 Z"/></g>
<g><path style="opacity:1" fill="#f9f4ee" d="M 1094.5,35.5 C 1090.46,38.2133 1087.46,41.88 1085.5,46.5C 1083.92,44.4922 1082.92,42.1589 1082.5,39.5C 1081.5,38.8333 1080.5,38.1667 1079.5,37.5C 1084.06,35.5583 1089.06,34.8917 1094.5,35.5 Z"/></g>
<g><path style="opacity:1" fill="#a59875" d="M 168.5,37.5 C 168.833,37.5 169.167,37.5 169.5,37.5C 168.878,38.6266 168.045,39.6266 167,40.5C 166.819,43.6946 166.319,46.6946 165.5,49.5C 165.335,46.1501 165.502,42.8168 166,39.5C 166.708,38.6195 167.542,37.9528 168.5,37.5 Z"/></g>
<g><path style="opacity:1" fill="#f2ede0" d="M 367.5,35.5 C 376.833,35.5 386.167,35.5 395.5,35.5C 395.824,39.5546 395.491,43.5546 394.5,47.5C 393.817,47.1373 393.15,46.8039 392.5,46.5C 392.2,42.0298 389.866,39.1965 385.5,38C 382.183,37.5017 378.85,37.335 375.5,37.5C 375.167,37.5 374.833,37.5 374.5,37.5C 372.167,36.8333 369.833,36.1667 367.5,35.5 Z"/></g>
<g><path style="opacity:1" fill="#f9f7f0" d="M 612.5,39.5 C 616.198,51.0951 620.031,62.7618 624,74.5C 625.039,75.7101 626.206,76.7101 627.5,77.5C 621.021,78.4907 614.354,78.824 607.5,78.5C 611.822,74.2477 612.489,69.581 609.5,64.5C 610.01,61.6122 609.344,59.2789 607.5,57.5C 607.784,55.5853 607.451,53.9187 606.5,52.5C 606.5,51.1667 606.5,49.8333 606.5,48.5C 605.209,48.7373 604.209,48.404 603.5,47.5C 604.659,43.8487 606.326,40.5154 608.5,37.5C 609.15,37.1961 609.817,36.8627 610.5,36.5C 611.176,37.6016 611.842,38.6016 612.5,39.5 Z"/></g>
<g><path style="opacity:1" fill="#faf9f6" d="M 745.5,38.5 C 747.755,39.6476 749.588,41.3143 751,43.5C 751.667,50.1667 751.667,56.8333 751,63.5C 749.653,67.7318 747.153,71.0651 743.5,73.5C 742.761,73.631 742.094,73.4643 741.5,73C 742.833,72.3333 742.833,71.6667 741.5,71C 742.167,70.6667 742.833,70.3333 743.5,70C 741.771,68.2111 741.104,66.0444 741.5,63.5C 743.055,59.7968 743.722,55.7968 743.5,51.5C 743.716,47.309 743.05,43.309 741.5,39.5C 742.689,38.5713 744.022,38.238 745.5,38.5 Z"/></g>
<g><path style="opacity:1" fill="#faf7f1" d="M 790.5,37.5 C 789.191,39.5706 788.525,42.0706 788.5,45C 788.124,50.1688 787.791,55.3355 787.5,60.5C 787.334,65.5111 787.501,70.5111 788,75.5C 790.153,77.4439 792.653,77.9439 795.5,77C 802.574,74.2586 806.074,69.0919 806,61.5C 806.667,55.8333 806.667,50.1667 806,44.5C 804.575,41.3937 802.408,39.0604 799.5,37.5C 801.981,36.7417 804.648,36.7417 807.5,37.5C 811.754,38.5852 814.587,41.2518 816,45.5C 818.171,56.6318 815.671,66.4652 808.5,75C 805.691,76.7411 802.691,77.9078 799.5,78.5C 790.318,78.8266 781.318,78.4933 772.5,77.5C 773.492,77.6716 774.158,77.3382 774.5,76.5C 776.776,76.2435 777.943,74.9102 778,72.5C 778.912,67.5364 779.412,62.5364 779.5,57.5C 779.5,56.5 779.5,55.5 779.5,54.5C 780.913,51.6177 781.579,48.4511 781.5,45C 781.494,42.9674 781.161,41.134 780.5,39.5C 780.586,38.5041 780.252,37.6708 779.5,37C 783.358,36.1901 787.024,36.3567 790.5,37.5 Z"/></g>
<g><path style="opacity:1" fill="#907940" d="M 260.5,37.5 C 263.167,37.5 265.833,37.5 268.5,37.5C 269.458,37.9528 270.292,38.6195 271,39.5C 273.924,45.9607 272.424,50.9607 266.5,54.5C 264.167,54.5 261.833,54.5 259.5,54.5C 259.5,53.5 259.5,52.5 259.5,51.5C 259.437,46.7971 259.771,42.1304 260.5,37.5 Z"/></g>
<g><path style="opacity:1" fill="#f2ead6" d="M 858.5,35.5 C 859.089,39.9707 858.423,43.9707 856.5,47.5C 856.567,46.0413 856.234,44.7079 855.5,43.5C 857.344,41.7211 858.01,39.3878 857.5,36.5C 854.615,36.1936 851.948,36.5269 849.5,37.5C 845.833,37.5 842.167,37.5 838.5,37.5C 838.5,39.1667 838.5,40.8333 838.5,42.5C 838.167,42.5 837.833,42.5 837.5,42.5C 837.5,40.5 837.5,38.5 837.5,36.5C 833.958,36.1872 830.625,36.5206 827.5,37.5C 826.5,37.5 825.5,37.5 824.5,37.5C 835.451,35.5223 846.784,34.8556 858.5,35.5 Z"/></g>
<g><path style="opacity:1" fill="#faf8f1" d="M 123.5,79.5 C 123.5,79.1667 123.5,78.8333 123.5,78.5C 120.99,75.6316 118.657,72.6316 116.5,69.5C 116.5,69.1667 116.5,68.8333 116.5,68.5C 116.612,61.8198 116.946,55.1531 117.5,48.5C 121.496,37.8327 129.163,33.3327 140.5,35C 147.688,41.2282 150.188,49.0615 148,58.5C 146.334,73.3454 138.168,80.3454 123.5,79.5 Z"/></g>
<g><path style="opacity:1" fill="#f3ecdf" d="M 490.5,47.5 C 490.741,45.1016 490.074,43.1016 488.5,41.5C 485.595,38.22 481.929,36.8867 477.5,37.5C 476.686,46.377 475.353,55.0437 473.5,63.5C 473.947,56.8076 474.614,50.1409 475.5,43.5C 474.167,43.5 472.833,43.5 471.5,43.5C 471.318,41.4086 471.652,39.4086 472.5,37.5C 471.311,36.5713 469.978,36.238 468.5,36.5C 468.208,45.06 467.208,53.3934 465.5,61.5C 465.986,53.4823 466.653,45.4823 467.5,37.5C 462.062,36.8854 458.062,38.8854 455.5,43.5C 454.115,44.5736 452.949,45.9069 452,47.5C 451.55,43.8125 451.717,40.1458 452.5,36.5C 465.754,35.5192 479.087,35.1858 492.5,35.5C 493.089,39.9707 492.423,43.9707 490.5,47.5 Z"/></g>
<g><path style="opacity:1" fill="#f4ebdb" d="M 790.5,37.5 C 790.145,45.3875 789.145,53.0542 787.5,60.5C 787.791,55.3355 788.124,50.1688 788.5,45C 788.525,42.0706 789.191,39.5706 790.5,37.5 Z"/></g>
<g><path style="opacity:1" fill="#8e7941" d="M 849.5,37.5 C 851.806,39.1394 853.806,41.1394 855.5,43.5C 856.234,44.7079 856.567,46.0413 856.5,47.5C 858.676,55.9094 859.343,64.4094 858.5,73C 857.45,75.5329 856.117,77.6996 854.5,79.5C 854.5,79.1667 854.5,78.8333 854.5,78.5C 855.167,76.5 855.833,74.5 856.5,72.5C 858.461,70.68 858.794,68.68 857.5,66.5C 854.829,70.1035 851.496,73.1035 847.5,75.5C 848.481,73.5107 849.481,71.5107 850.5,69.5C 850.085,65.9261 849.085,62.5927 847.5,59.5C 849.729,60.0553 851.395,61.3886 852.5,63.5C 853.474,61.2573 853.808,58.924 853.5,56.5C 854.797,54.3066 854.797,51.9732 853.5,49.5C 852.893,49.6236 852.56,49.9569 852.5,50.5C 852.5,51.1667 852.167,51.5 851.5,51.5C 851.5,50.1667 851.5,48.8333 851.5,47.5C 852.5,47.5 853.5,47.5 854.5,47.5C 854.374,43.8694 852.541,41.5361 849,40.5C 848.05,41.0223 847.216,41.689 846.5,42.5C 843.947,42.0548 841.28,42.0548 838.5,42.5C 838.5,40.8333 838.5,39.1667 838.5,37.5C 842.167,37.5 845.833,37.5 849.5,37.5 Z"/></g>
<g><path style="opacity:1" fill="#8f773c" d="M 908.5,41.5 C 908.492,44.5448 908.159,47.5448 907.5,50.5C 904.41,54.0795 900.41,55.4128 895.5,54.5C 895.647,48.7669 896.314,43.1002 897.5,37.5C 902.094,36.6572 905.761,37.9906 908.5,41.5 Z"/></g>
<g><path style="opacity:1" fill="#fbf9f4" d="M 1149.5,41.5 C 1153.29,51.9404 1156.79,62.607 1160,73.5C 1161.37,75.0414 1162.87,76.3747 1164.5,77.5C 1158.35,78.6533 1152.01,78.82 1145.5,78C 1146.06,77.6174 1146.39,77.1174 1146.5,76.5C 1146.5,76.1667 1146.5,75.8333 1146.5,75.5C 1148.03,74.5081 1148.69,73.0081 1148.5,71C 1148.5,68.5161 1147.84,66.3495 1146.5,64.5C 1146.89,61.4467 1146.22,58.78 1144.5,56.5C 1144.5,56.1667 1144.5,55.8333 1144.5,55.5C 1144.31,52.3992 1143.64,49.3992 1142.5,46.5C 1144.29,44.1416 1145.29,41.475 1145.5,38.5C 1146.5,38.5 1147.5,38.5 1148.5,38.5C 1148.26,39.791 1148.6,40.791 1149.5,41.5 Z"/></g>
<g><path style="opacity:1" fill="#f8f6ef" d="M 728.5,37.5 C 723.905,41.0118 721.071,45.6784 720,51.5C 718.772,60.1112 719.605,68.4445 722.5,76.5C 722.265,77.0967 721.765,77.4301 721,77.5C 718.836,75.5018 716.336,74.1684 713.5,73.5C 711.483,71.3078 710.316,68.6412 710,65.5C 709.501,61.8484 709.335,58.1817 709.5,54.5C 711.207,47.1399 715.207,41.4733 721.5,37.5C 723.979,36.3773 726.312,36.3773 728.5,37.5 Z"/></g>
<g><path style="opacity:1" fill="#fbfaf6" d="M 473.5,63.5 C 473.335,66.8499 473.502,70.1832 474,73.5C 474.608,75.0664 475.442,76.3998 476.5,77.5C 470.833,78.1667 465.167,78.8333 459.5,79.5C 458.624,79.6309 457.957,79.2975 457.5,78.5C 460.126,77.7071 461.96,76.0405 463,73.5C 463.943,69.5036 464.776,65.5036 465.5,61.5C 467.208,53.3934 468.208,45.06 468.5,36.5C 469.978,36.238 471.311,36.5713 472.5,37.5C 471.652,39.4086 471.318,41.4086 471.5,43.5C 472.833,43.5 474.167,43.5 475.5,43.5C 474.614,50.1409 473.947,56.8076 473.5,63.5 Z"/></g>
<g><path style="opacity:1" fill="#eaddc4" d="M 915.5,38.5 C 918.858,41.9367 919.191,45.6034 916.5,49.5C 916.677,45.7657 916.344,42.0991 915.5,38.5 Z"/></g>
<g><path style="opacity:1" fill="#f9f6ef" d="M 957.5,36.5 C 964.216,38.2721 967.883,42.6054 968.5,49.5C 969.602,63.4596 963.936,73.2929 951.5,79C 946.167,79.6667 940.833,79.6667 935.5,79C 929.894,76.2287 926.894,71.7287 926.5,65.5C 926.274,60.4376 926.608,55.4376 927.5,50.5C 927.491,48.6916 927.991,47.0249 929,45.5C 930.98,43.1013 933.147,41.1013 935.5,39.5C 937.973,39.0882 939.306,40.0882 939.5,42.5C 939.107,44.2838 938.441,45.9505 937.5,47.5C 936.732,48.2625 936.232,49.2625 936,50.5C 935.179,57.6791 935.345,64.6791 936.5,71.5C 936.5,72.1667 936.833,72.5 937.5,72.5C 937.859,74.371 938.859,75.871 940.5,77C 945.437,78.3694 949.604,77.2027 953,73.5C 955.208,70.4671 956.708,67.1337 957.5,63.5C 958.222,63.0825 958.722,62.4158 959,61.5C 959.817,55.9836 959.651,50.6503 958.5,45.5C 958.598,43.4471 957.931,41.7804 956.5,40.5C 956.489,38.9826 955.823,37.8159 954.5,37C 955.448,36.5172 956.448,36.3505 957.5,36.5 Z"/></g>
<g><path style="opacity:1" fill="#fbfbfa" d="M 90.5,38.5 C 89.8333,39.1667 89.1667,39.8333 88.5,40.5C 87.5233,43.2869 87.19,46.2869 87.5,49.5C 84.9552,49.8495 82.9552,49.0162 81.5,47C 83.0351,44.3617 84.0351,41.5283 84.5,38.5C 84.5,37.8333 84.8333,37.5 85.5,37.5C 86.6948,37.3225 87.8615,36.9891 89,36.5C 90.0299,36.8361 90.5299,37.5028 90.5,38.5 Z"/></g>
<g><path style="opacity:1" fill="#998659" d="M 444.5,39.5 C 444.08,41.0936 443.414,42.5936 442.5,44C 442.735,44.8732 443.069,45.7065 443.5,46.5C 441.445,52.0705 440.112,57.7372 439.5,63.5C 439.509,56.0968 440.176,48.7635 441.5,41.5C 442.5,40.8333 443.5,40.1667 444.5,39.5 Z"/></g>
<g><path style="opacity:1" fill="#a69771" d="M 488.5,41.5 C 490.074,43.1016 490.741,45.1016 490.5,47.5C 488.926,45.8984 488.259,43.8984 488.5,41.5 Z"/></g>
<g><path style="opacity:1" fill="#9e9062" d="M 1023.5,39.5 C 1024.9,40.7767 1025.56,42.4434 1025.5,44.5C 1025.2,47.3857 1024.53,50.0524 1023.5,52.5C 1023.5,48.1667 1023.5,43.8333 1023.5,39.5 Z"/></g>
<g><path style="opacity:1" fill="#bcad8f" d="M 374.5,37.5 C 374.833,37.5 375.167,37.5 375.5,37.5C 375.299,43.509 374.966,49.509 374.5,55.5C 373.527,53.0521 373.194,50.3854 373.5,47.5C 374.207,44.2139 374.54,40.8806 374.5,37.5 Z"/></g>
<g><path style="opacity:1" fill="#8e7738" d="M 951.5,37.5 C 953.411,38.075 955.078,39.075 956.5,40.5C 957.931,41.7804 958.598,43.4471 958.5,45.5C 958.697,51.5451 958.363,57.5451 957.5,63.5C 956.708,67.1337 955.208,70.4671 953,73.5C 949.604,77.2027 945.437,78.3694 940.5,77C 938.859,75.871 937.859,74.371 937.5,72.5C 938.475,69.752 940.308,67.752 943,66.5C 944.438,67.9003 945.271,69.567 945.5,71.5C 944.167,71.5 942.833,71.5 941.5,71.5C 941.5,72.8333 941.5,74.1667 941.5,75.5C 943.901,74.9512 946.235,74.1178 948.5,73C 950.155,71.5557 950.822,69.7224 950.5,67.5C 947.208,66.8528 944.374,65.8528 942,64.5C 941.661,62.1656 941.828,59.8322 942.5,57.5C 942.406,55.3115 941.739,53.3115 940.5,51.5C 941.758,49.3516 941.758,47.1849 940.5,45C 940.646,43.2729 941.313,43.1062 942.5,44.5C 943.251,43.624 943.751,42.624 944,41.5C 946.795,42.7825 949.628,42.7825 952.5,41.5C 950.5,40.8333 948.5,40.1667 946.5,39.5C 947.668,37.7826 949.335,37.1159 951.5,37.5 Z"/></g>
<g><path style="opacity:1" fill="#8e773b" d="M 790.5,37.5 C 793.5,37.5 796.5,37.5 799.5,37.5C 802.408,39.0604 804.575,41.3937 806,44.5C 806.667,50.1667 806.667,55.8333 806,61.5C 806.074,69.0919 802.574,74.2586 795.5,77C 792.653,77.9439 790.153,77.4439 788,75.5C 787.501,70.5111 787.334,65.5111 787.5,60.5C 789.145,53.0542 790.145,45.3875 790.5,37.5 Z"/></g>
<g><path style="opacity:1" fill="#907336" d="M 851.5,51.5 C 851.5,52.1667 851.167,52.5 850.5,52.5C 846.773,50.7476 842.773,50.081 838.5,50.5C 838.5,47.8333 838.5,45.1667 838.5,42.5C 841.28,42.0548 843.947,42.0548 846.5,42.5C 847.216,41.689 848.05,41.0223 849,40.5C 852.541,41.5361 854.374,43.8694 854.5,47.5C 853.5,47.5 852.5,47.5 851.5,47.5C 851.5,48.8333 851.5,50.1667 851.5,51.5 Z"/></g>
<g><path style="opacity:1" fill="#90793e" d="M 132.5,36.5 C 134.722,36.178 136.556,36.8446 138,38.5C 139.921,49.2084 139.421,59.8751 136.5,70.5C 135.025,73.8146 132.858,76.4813 130,78.5C 127.22,77.5067 125.553,75.5067 125,72.5C 123.856,62.2776 124.856,52.2776 128,42.5C 129.332,40.34 130.832,38.34 132.5,36.5 Z"/></g>
<g><path style="opacity:1" fill="#a69770" d="M 198.5,44.5 C 198.5,46.5 198.5,48.5 198.5,50.5C 199.5,50.5 200.5,50.5 201.5,50.5C 200.432,51.4345 199.099,51.7678 197.5,51.5C 197.198,48.9407 197.532,46.6074 198.5,44.5 Z"/></g>
<g><path style="opacity:1" fill="#8e7a49" d="M 375.5,37.5 C 378.85,37.335 382.183,37.5017 385.5,38C 389.866,39.1965 392.2,42.0298 392.5,46.5C 388.869,40.6844 383.536,38.0177 376.5,38.5C 376.5,41.5 376.5,44.5 376.5,47.5C 378.527,47.6621 380.527,47.4955 382.5,47C 378.797,43.4673 379.131,41.3006 383.5,40.5C 383.5,42.1667 383.5,43.8333 383.5,45.5C 384.675,45.281 385.675,45.6143 386.5,46.5C 383.06,48.2235 379.394,48.8902 375.5,48.5C 375.5,50.5 375.5,52.5 375.5,54.5C 378.167,54.5 380.833,54.5 383.5,54.5C 380.713,55.4767 377.713,55.81 374.5,55.5C 374.966,49.509 375.299,43.509 375.5,37.5 Z"/></g>
<g><path style="opacity:1" fill="#ebe2b0" d="M 413.5,47.5 C 415.048,47.8212 415.715,48.8212 415.5,50.5C 414.599,49.7095 413.932,48.7095 413.5,47.5 Z"/></g>
<g><path style="opacity:1" fill="#e2d9bd" d="M 502.5,39.5 C 503.16,40.964 503.493,42.6307 503.5,44.5C 502.801,51.0219 501.801,57.3553 500.5,63.5C 500.948,55.4798 501.615,47.4798 502.5,39.5 Z"/></g>
<g><path style="opacity:1" fill="#8e763a" d="M 741.5,63.5 C 740.11,68.1054 737.777,72.2721 734.5,76C 730.574,77.8238 726.574,77.9904 722.5,76.5C 719.605,68.4445 718.772,60.1112 720,51.5C 721.071,45.6784 723.905,41.0118 728.5,37.5C 734.319,35.4381 738.653,37.1047 741.5,42.5C 742.599,49.4701 742.599,56.4701 741.5,63.5 Z"/></g>
<g><path style="opacity:1" fill="#fbf8f3" d="M 837.5,42.5 C 837.414,46.8566 837.08,51.19 836.5,55.5C 840.182,55.6653 843.848,55.4986 847.5,55C 848.942,54.6232 849.942,53.7899 850.5,52.5C 851.167,52.5 851.5,52.1667 851.5,51.5C 852.167,51.5 852.5,51.1667 852.5,50.5C 853.461,52.2646 853.795,54.2646 853.5,56.5C 853.808,58.924 853.474,61.2573 852.5,63.5C 851.395,61.3886 849.729,60.0553 847.5,59.5C 847.5,59.1667 847.5,58.8333 847.5,58.5C 843.702,57.5166 839.702,57.1832 835.5,57.5C 835.5,59.5 835.5,61.5 835.5,63.5C 833.04,67.5502 833.04,71.5502 835.5,75.5C 839.477,78.0052 843.477,78.0052 847.5,75.5C 851.496,73.1035 854.829,70.1035 857.5,66.5C 856.85,68.4352 856.517,70.4352 856.5,72.5C 855.833,74.5 855.167,76.5 854.5,78.5C 843.162,78.6665 831.828,78.4999 820.5,78C 821.416,77.7216 822.082,77.2216 822.5,76.5C 823.692,74.8869 824.692,73.2202 825.5,71.5C 826.725,66.7105 827.392,61.7105 827.5,56.5C 829.362,50.8897 829.696,45.223 828.5,39.5C 828.167,38.8333 827.833,38.1667 827.5,37.5C 830.625,36.5206 833.958,36.1872 837.5,36.5C 837.5,38.5 837.5,40.5 837.5,42.5 Z"/></g>
<g><path style="opacity:1" fill="#fbf9f3" d="M 908.5,35.5 C 911.056,36.0512 913.389,37.0512 915.5,38.5C 916.344,42.0991 916.677,45.7657 916.5,49.5C 915.833,50.8333 915.167,52.1667 914.5,53.5C 913.833,53.5 913.167,53.5 912.5,53.5C 910.801,53.6602 909.134,53.4935 907.5,53C 908.252,52.3292 908.586,51.4959 908.5,50.5C 909.681,47.3623 909.681,44.3623 908.5,41.5C 905.761,37.9906 902.094,36.6572 897.5,37.5C 896.314,43.1002 895.647,48.7669 895.5,54.5C 896.833,55.1667 898.167,55.8333 899.5,56.5C 897.533,56.2606 895.699,56.5939 894,57.5C 893.502,60.8168 893.335,64.1501 893.5,67.5C 892.477,77.7397 896.477,80.2397 905.5,75C 906.823,74.1841 907.489,73.0174 907.5,71.5C 908.117,71.3893 908.617,71.056 909,70.5C 909.805,67.3035 909.638,64.3035 908.5,61.5C 907.694,60.2719 906.694,59.2719 905.5,58.5C 903.922,56.6824 904.422,55.6824 907,55.5C 908.533,55.7728 910.033,56.1062 911.5,56.5C 916.184,57.354 918.517,60.1874 918.5,65C 918.509,71.1432 915.842,75.6432 910.5,78.5C 909.833,78.5 909.167,78.5 908.5,78.5C 898.652,78.8271 888.986,78.4938 879.5,77.5C 881.696,76.1459 883.196,74.1459 884,71.5C 885.085,61.6595 886.251,51.8262 887.5,42C 887.478,39.8171 886.478,38.3171 884.5,37.5C 884.389,36.8826 884.056,36.3826 883.5,36C 891.827,35.5003 900.16,35.3336 908.5,35.5 Z"/></g>
<g><path style="opacity:1" fill="#c4b793" d="M 908.5,41.5 C 909.681,44.3623 909.681,47.3623 908.5,50.5C 908.167,50.5 907.833,50.5 907.5,50.5C 908.159,47.5448 908.492,44.5448 908.5,41.5 Z"/></g>
<g><path style="opacity:1" fill="#b3a885" d="M 250.5,39.5 C 251.497,44.2131 251.163,48.8798 249.5,53.5C 249.669,48.8189 250.002,44.1522 250.5,39.5 Z"/></g>
<g><path style="opacity:1" fill="#d1c1a2" d="M 544.5,39.5 C 545.167,42.1667 545.833,44.8333 546.5,47.5C 546.806,50.3854 546.473,53.0521 545.5,55.5C 545.662,53.4727 545.495,51.4727 545,49.5C 544.809,51.7078 544.309,53.7078 543.5,55.5C 543.833,50.1667 544.167,44.8333 544.5,39.5 Z"/></g>
<g><path style="opacity:1" fill="#dcd8bc" d="M 828.5,39.5 C 829.696,45.223 829.362,50.8897 827.5,56.5C 827.76,50.828 828.093,45.1613 828.5,39.5 Z"/></g>
<g><path style="opacity:1" fill="#f4f0dc" d="M 84.5,38.5 C 84.0351,41.5283 83.0351,44.3617 81.5,47C 82.9552,49.0162 84.9552,49.8495 87.5,49.5C 87.19,46.2869 87.5233,43.2869 88.5,40.5C 89.1346,43.4929 89.3013,46.4929 89,49.5C 86.4449,51.6496 83.6116,51.9829 80.5,50.5C 78.9734,45.552 80.3067,41.552 84.5,38.5 Z"/></g>
<g><path style="opacity:1" fill="#aa9972" d="M 201.5,50.5 C 205.646,49.353 209.98,49.1864 214.5,50C 215.942,50.3768 216.942,51.2101 217.5,52.5C 215.883,51.962 214.216,51.6287 212.5,51.5C 209.038,50.5184 205.371,50.185 201.5,50.5 Z"/></g>
<g><path style="opacity:1" fill="#e4d8c4" d="M 295.5,39.5 C 297.026,40.4919 297.693,41.9919 297.5,44C 296.702,48.6778 295.702,53.1778 294.5,57.5C 294.966,51.509 295.299,45.509 295.5,39.5 Z"/></g>
<g><path style="opacity:1" fill="#978456" d="M 1051.5,42.5 C 1054.07,47.5254 1056.07,52.8587 1057.5,58.5C 1056.18,56.2842 1054.52,54.2842 1052.5,52.5C 1051.51,49.2317 1051.18,45.8984 1051.5,42.5 Z"/></g>
<g><path style="opacity:1" fill="#eadeca" d="M 217.5,35.5 C 211.021,36.4907 204.354,36.824 197.5,36.5C 197.5,38.8333 197.5,41.1667 197.5,43.5C 205.167,43.5 212.833,43.5 220.5,43.5C 213.352,44.4916 206.019,44.825 198.5,44.5C 197.532,46.6074 197.198,48.9407 197.5,51.5C 199.099,51.7678 200.432,51.4345 201.5,50.5C 205.371,50.185 209.038,50.5184 212.5,51.5C 211.5,51.5 210.5,51.5 209.5,51.5C 209.5,52.8333 209.5,54.1667 209.5,55.5C 208.711,55.2172 208.044,54.7172 207.5,54C 203.076,53.8199 198.743,53.6532 194.5,53.5C 195.411,49.212 196.078,44.8786 196.5,40.5C 196.5,38.8333 196.5,37.1667 196.5,35.5C 203.5,35.5 210.5,35.5 217.5,35.5 Z"/></g>
<g><path style="opacity:1" fill="#917e47" d="M 837.5,42.5 C 837.833,42.5 838.167,42.5 838.5,42.5C 838.5,45.1667 838.5,47.8333 838.5,50.5C 842.773,50.081 846.773,50.7476 850.5,52.5C 849.942,53.7899 848.942,54.6232 847.5,55C 843.848,55.4986 840.182,55.6653 836.5,55.5C 837.08,51.19 837.414,46.8566 837.5,42.5 Z"/></g>
<g><path style="opacity:1" fill="#8e753c" d="M 951.5,37.5 C 949.335,37.1159 947.668,37.7826 946.5,39.5C 948.5,40.1667 950.5,40.8333 952.5,41.5C 949.628,42.7825 946.795,42.7825 944,41.5C 943.751,42.624 943.251,43.624 942.5,44.5C 941.313,43.1062 940.646,43.2729 940.5,45C 941.758,47.1849 941.758,49.3516 940.5,51.5C 941.739,53.3115 942.406,55.3115 942.5,57.5C 941.828,59.8322 941.661,62.1656 942,64.5C 944.374,65.8528 947.208,66.8528 950.5,67.5C 950.822,69.7224 950.155,71.5557 948.5,73C 946.235,74.1178 943.901,74.9512 941.5,75.5C 941.5,74.1667 941.5,72.8333 941.5,71.5C 942.833,71.5 944.167,71.5 945.5,71.5C 945.271,69.567 944.438,67.9003 943,66.5C 940.308,67.752 938.475,69.752 937.5,72.5C 936.833,72.5 936.5,72.1667 936.5,71.5C 936.302,63.4659 936.635,55.4659 937.5,47.5C 938.441,45.9505 939.107,44.2838 939.5,42.5C 942.25,37.449 946.25,35.7824 951.5,37.5 Z"/></g>
<g><path style="opacity:1" fill="#faf7f2" d="M 212.5,51.5 C 214.216,51.6287 215.883,51.962 217.5,52.5C 222.931,60.0008 222.597,67.3341 216.5,74.5C 214.43,74.4486 212.597,75.1153 211,76.5C 209.97,76.1639 209.47,75.4972 209.5,74.5C 211.46,69.2174 211.793,63.884 210.5,58.5C 210.443,57.391 210.11,56.391 209.5,55.5C 209.5,54.1667 209.5,52.8333 209.5,51.5C 210.5,51.5 211.5,51.5 212.5,51.5 Z"/></g>
<g><path style="opacity:1" fill="#e6dec1" d="M 366.5,35.5 C 366.671,43.6262 365.671,51.6262 363.5,59.5C 364.408,52.8395 364.908,46.1729 365,39.5C 360.184,36.6503 360.684,35.317 366.5,35.5 Z"/></g>
<g><path style="opacity:1" fill="#cebb9c" d="M 852.5,50.5 C 852.56,49.9569 852.893,49.6236 853.5,49.5C 854.797,51.9732 854.797,54.3066 853.5,56.5C 853.795,54.2646 853.461,52.2646 852.5,50.5 Z"/></g>
<g><path style="opacity:1" fill="#958356" d="M 548.5,44.5 C 547.692,50.8351 547.025,57.3351 546.5,64C 546.392,65.6811 545.725,66.8478 544.5,67.5C 544.5,66.1667 544.5,64.8333 544.5,63.5C 544.575,60.7938 544.908,58.1272 545.5,55.5C 546.473,53.0521 546.806,50.3854 546.5,47.5C 546.238,46.0222 546.571,44.6888 547.5,43.5C 548.107,43.6236 548.44,43.9569 548.5,44.5 Z"/></g>
<g><path style="opacity:1" fill="#d2c5ac" d="M 780.5,39.5 C 781.161,41.134 781.494,42.9674 781.5,45C 781.579,48.4511 780.913,51.6177 779.5,54.5C 779.751,49.4932 780.084,44.4932 780.5,39.5 Z"/></g>
<g><path style="opacity:1" fill="#cbc2a6" d="M 259.5,51.5 C 259.5,52.5 259.5,53.5 259.5,54.5C 261.833,54.5 264.167,54.5 266.5,54.5C 264.052,55.4731 261.385,55.8064 258.5,55.5C 258.232,53.901 258.566,52.5676 259.5,51.5 Z"/></g>
<g><path style="opacity:1" fill="#8f7740" d="M 271.5,79.5 C 276.468,77.8658 279.801,74.5325 281.5,69.5C 282.638,66.6965 282.805,63.6965 282,60.5C 281.617,59.944 281.117,59.6107 280.5,59.5C 280.167,58.5 279.5,57.8333 278.5,57.5C 277.833,57.1667 277.167,56.8333 276.5,56.5C 276.167,55.8333 275.833,55.1667 275.5,54.5C 277.5,53.8333 278.833,52.5 279.5,50.5C 283.343,43.1039 281.343,38.1039 273.5,35.5C 273.5,35.1667 273.5,34.8333 273.5,34.5C 274.5,34.5 275.5,34.5 276.5,34.5C 276.5,33.5 276.5,32.5 276.5,31.5C 277.5,31.5 278.5,31.5 279.5,31.5C 278.789,35.3246 279.955,38.3246 283,40.5C 283.729,44.3773 283.562,48.2106 282.5,52C 283.682,53.6793 285.015,55.1793 286.5,56.5C 288.27,53.8066 288.937,50.8066 288.5,47.5C 289.5,47.5 290.5,47.5 291.5,47.5C 291.662,51.7128 290.995,55.7128 289.5,59.5C 290.818,62.9301 290.651,66.2634 289,69.5C 287.989,68.6634 286.822,68.33 285.5,68.5C 285.785,66.712 285.452,65.0453 284.5,63.5C 284.746,69.9923 282.412,75.159 277.5,79C 275.527,79.4955 273.527,79.6621 271.5,79.5 Z"/></g>
<g><path style="opacity:1" fill="#c1c09f" d="M 275.5,54.5 C 275.833,55.1667 276.167,55.8333 276.5,56.5C 275.325,56.719 274.325,56.3857 273.5,55.5C 273.957,54.7025 274.624,54.3691 275.5,54.5 Z"/></g>
<g><path style="opacity:1" fill="#ebe6d4" d="M 907.5,50.5 C 907.833,50.5 908.167,50.5 908.5,50.5C 908.586,51.4959 908.252,52.3292 907.5,53C 909.134,53.4935 910.801,53.6602 912.5,53.5C 911.89,54.391 911.557,55.391 911.5,56.5C 910.033,56.1062 908.533,55.7728 907,55.5C 904.422,55.6824 903.922,56.6824 905.5,58.5C 904.508,58.6716 903.842,58.3382 903.5,57.5C 902.432,56.5655 901.099,56.2322 899.5,56.5C 898.167,55.8333 896.833,55.1667 895.5,54.5C 900.41,55.4128 904.41,54.0795 907.5,50.5 Z"/></g>
<g><path style="opacity:1" fill="#8c753d" d="M 1144.5,55.5 C 1144.5,55.8333 1144.5,56.1667 1144.5,56.5C 1144.37,58.2915 1144.7,59.9582 1145.5,61.5C 1141.96,61.8128 1138.62,61.4794 1135.5,60.5C 1137.39,56.3944 1139.55,52.3944 1142,48.5C 1142.39,51.1042 1143.22,53.4375 1144.5,55.5 Z"/></g>
<g><path style="opacity:1" fill="#f6f0e5" d="M 373.5,47.5 C 373.194,50.3854 373.527,53.0521 374.5,55.5C 377.713,55.81 380.713,55.4767 383.5,54.5C 386.318,54.3426 388.318,53.0092 389.5,50.5C 390.139,51.0968 390.472,51.9302 390.5,53C 390.368,56.6756 389.368,59.8422 387.5,62.5C 387.106,60.2901 385.773,58.9568 383.5,58.5C 380.038,57.5184 376.371,57.185 372.5,57.5C 371.725,62.7968 371.392,68.1301 371.5,73.5C 370.739,69.8183 370.072,65.985 369.5,62C 369.95,60.7147 370.617,59.548 371.5,58.5C 370.5,57.8333 369.5,57.1667 368.5,56.5C 368.938,55.4937 369.604,55.4937 370.5,56.5C 371.634,53.4243 372.634,50.4243 373.5,47.5 Z"/></g>
<g><path style="opacity:1" fill="#e0d6bb" d="M 438.5,41.5 C 439.5,41.5 440.5,41.5 441.5,41.5C 440.176,48.7635 439.509,56.0968 439.5,63.5C 438.833,64.8333 438.167,66.1667 437.5,67.5C 437.5,66.1667 437.5,64.8333 437.5,63.5C 435.821,63.7148 434.821,63.0481 434.5,61.5C 435.117,61.6107 435.617,61.944 436,62.5C 437.081,55.5219 437.914,48.5219 438.5,41.5 Z"/></g>
<g><path style="opacity:1" fill="#efe7db" d="M 511.5,47.5 C 511.5,50.1667 511.5,52.8333 511.5,55.5C 517.575,56.6279 522.575,54.9612 526.5,50.5C 527.468,52.6074 527.802,54.9407 527.5,57.5C 527.799,59.604 527.466,61.604 526.5,63.5C 525.115,61.1165 523.115,59.4499 520.5,58.5C 517.375,57.5206 514.042,57.1872 510.5,57.5C 510.187,53.9581 510.521,50.6248 511.5,47.5 Z"/></g>
<g><path style="opacity:1" fill="#bfa973" d="M 526.5,50.5 C 526.56,49.9569 526.893,49.6236 527.5,49.5C 528.8,52.3092 528.8,54.9759 527.5,57.5C 527.802,54.9407 527.468,52.6074 526.5,50.5 Z"/></g>
<g><path style="opacity:1" fill="#f3edd7" d="M 545.5,55.5 C 544.908,58.1272 544.575,60.7938 544.5,63.5C 543.539,61.7354 543.205,59.7354 543.5,57.5C 543.5,56.8333 543.5,56.1667 543.5,55.5C 544.309,53.7078 544.809,51.7078 545,49.5C 545.495,51.4727 545.662,53.4727 545.5,55.5 Z"/></g>
<g><path style="opacity:1" fill="#998659" d="M 674.5,43.5 C 675.643,46.9758 675.81,50.6425 675,54.5C 673.505,58.3358 670.671,60.3358 666.5,60.5C 672.578,56.6688 675.245,51.0021 674.5,43.5 Z"/></g>
<g><path style="opacity:1" fill="#e1dbbe" d="M 989.5,49.5 C 989.31,54.3696 988.644,59.0363 987.5,63.5C 987.123,58.5474 987.789,53.8807 989.5,49.5 Z"/></g>
<g><path style="opacity:1" fill="#b4a57a" d="M 1113.5,43.5 C 1113.64,48.4141 1112.97,53.0808 1111.5,57.5C 1111.36,52.5859 1112.03,47.9192 1113.5,43.5 Z"/></g>
<g><path style="opacity:1" fill="#ae9d78" d="M 383.5,58.5 C 380.167,58.5 376.833,58.5 373.5,58.5C 372.806,63.8049 372.472,69.1383 372.5,74.5C 371.833,74.5 371.5,74.1667 371.5,73.5C 371.392,68.1301 371.725,62.7968 372.5,57.5C 376.371,57.185 380.038,57.5184 383.5,58.5 Z"/></g>
<g><path style="opacity:1" fill="#ae9f7a" d="M 510.5,57.5 C 514.042,57.1872 517.375,57.5206 520.5,58.5C 517.167,58.5 513.833,58.5 510.5,58.5C 510.5,60.8333 510.5,63.1667 510.5,65.5C 509.523,68.2869 509.19,71.2869 509.5,74.5C 508.202,68.7667 508.535,63.1001 510.5,57.5 Z"/></g>
<g><path style="opacity:1" fill="#917a43" d="M 606.5,52.5 C 607.451,53.9187 607.784,55.5853 607.5,57.5C 608.038,59.1172 608.371,60.7839 608.5,62.5C 604.774,62.8226 601.107,62.4892 597.5,61.5C 599.833,57.5 602.167,53.5 604.5,49.5C 605.176,50.6016 605.842,51.6016 606.5,52.5 Z"/></g>
<g><path style="opacity:1" fill="#cfc1a8" d="M 899.5,56.5 C 901.099,56.2322 902.432,56.5655 903.5,57.5C 900.813,57.3359 898.146,57.5026 895.5,58C 894.868,61.2704 894.201,64.4371 893.5,67.5C 893.335,64.1501 893.502,60.8168 894,57.5C 895.699,56.5939 897.533,56.2606 899.5,56.5 Z"/></g>
<g><path style="opacity:1" fill="#c0b38c" d="M 389.5,50.5 C 389.56,49.9569 389.893,49.6236 390.5,49.5C 390.833,50.8333 391.167,52.1667 391.5,53.5C 390.947,56.8167 390.614,60.15 390.5,63.5C 389.209,63.7373 388.209,63.404 387.5,62.5C 389.368,59.8422 390.368,56.6756 390.5,53C 390.472,51.9302 390.139,51.0968 389.5,50.5 Z"/></g>
<g><path style="opacity:1" fill="#eadec3" d="M 603.5,47.5 C 604.209,48.404 605.209,48.7373 606.5,48.5C 606.5,49.8333 606.5,51.1667 606.5,52.5C 605.842,51.6016 605.176,50.6016 604.5,49.5C 602.167,53.5 599.833,57.5 597.5,61.5C 601.107,62.4892 604.774,62.8226 608.5,62.5C 608.371,60.7839 608.038,59.1172 607.5,57.5C 609.344,59.2789 610.01,61.6122 609.5,64.5C 604.786,64.1734 600.12,64.5067 595.5,65.5C 592.943,68.6993 591.943,72.366 592.5,76.5C 591.698,75.0484 591.198,73.3817 591,71.5C 590.292,72.3805 589.458,73.0472 588.5,73.5C 592.984,64.5308 597.984,55.8641 603.5,47.5 Z"/></g>
<g><path style="opacity:1" fill="#937d4c" d="M 912.5,53.5 C 913.167,53.5 913.833,53.5 914.5,53.5C 914.5,54.5 914.5,55.5 914.5,56.5C 917.168,56.3337 919.502,55.3337 921.5,53.5C 922.833,55.1667 922.833,56.8333 921.5,58.5C 920.914,58.2907 920.414,57.9574 920,57.5C 919.609,63.8634 918.942,70.1967 918,76.5C 915.618,77.5541 913.118,78.2208 910.5,78.5C 915.842,75.6432 918.509,71.1432 918.5,65C 918.517,60.1874 916.184,57.354 911.5,56.5C 911.557,55.391 911.89,54.391 912.5,53.5 Z"/></g>
<g><path style="opacity:1" fill="#cabca2" d="M 927.5,50.5 C 926.608,55.4376 926.274,60.4376 926.5,65.5C 925.352,61.0189 925.185,56.3522 926,51.5C 926.383,50.944 926.883,50.6107 927.5,50.5 Z"/></g>
<g><path style="opacity:1" fill="#efe2ca" d="M 958.5,45.5 C 959.651,50.6503 959.817,55.9836 959,61.5C 958.722,62.4158 958.222,63.0825 957.5,63.5C 958.363,57.5451 958.697,51.5451 958.5,45.5 Z"/></g>
<g><path style="opacity:1" fill="#ebdfc9" d="M 117.5,48.5 C 116.946,55.1531 116.612,61.8198 116.5,68.5C 115.518,65.0381 115.185,61.3714 115.5,57.5C 115.42,54.2186 116.087,51.2186 117.5,48.5 Z"/></g>
<g><path style="opacity:1" fill="#f8f5ee" d="M 652.5,37.5 C 651.962,44.8219 651.629,52.1553 651.5,59.5C 662.163,59.6554 666.663,54.3221 665,43.5C 664.238,40.532 662.405,38.532 659.5,37.5C 661.265,36.5386 663.265,36.2053 665.5,36.5C 670.307,36.6965 673.307,39.0299 674.5,43.5C 675.245,51.0021 672.578,56.6688 666.5,60.5C 664.972,60.5173 664.472,61.184 665,62.5C 665.925,63.0465 666.758,63.7132 667.5,64.5C 668.57,69.885 671.236,74.2184 675.5,77.5C 670.015,78.6517 664.349,78.8184 658.5,78C 659.056,77.6174 659.389,77.1174 659.5,76.5C 660.311,70.416 658.311,65.5826 653.5,62C 652.207,61.51 650.873,61.3433 649.5,61.5C 649.5,66.1667 649.5,70.8333 649.5,75.5C 649.5,76.5 649.5,77.5 649.5,78.5C 644.305,78.1795 639.305,78.5128 634.5,79.5C 633.624,79.6309 632.957,79.2975 632.5,78.5C 635.86,77.3057 638.027,74.9724 639,71.5C 641.063,60.9698 642.23,50.3031 642.5,39.5C 642.586,38.5041 642.252,37.6708 641.5,37C 645.358,36.1901 649.024,36.3567 652.5,37.5 Z"/></g>
<g><path style="opacity:1" fill="#90783d" d="M 652.5,37.5 C 654.833,37.5 657.167,37.5 659.5,37.5C 662.405,38.532 664.238,40.532 665,43.5C 666.663,54.3221 662.163,59.6554 651.5,59.5C 651.629,52.1553 651.962,44.8219 652.5,37.5 Z"/></g>
<g><path style="opacity:1" fill="#a08f63" d="M 937.5,47.5 C 936.635,55.4659 936.302,63.4659 936.5,71.5C 935.345,64.6791 935.179,57.6791 936,50.5C 936.232,49.2625 936.732,48.2625 937.5,47.5 Z"/></g>
<g><path style="opacity:1" fill="#e9dcc6" d="M 1082.5,39.5 C 1082.92,42.1589 1083.92,44.4922 1085.5,46.5C 1080.57,54.0359 1075.9,61.7026 1071.5,69.5C 1071.5,68.5 1071.5,67.5 1071.5,66.5C 1074.71,59.7493 1078.21,53.0826 1082,46.5C 1082.5,44.1902 1082.66,41.8568 1082.5,39.5 Z"/></g>
<g><path style="opacity:1" fill="#8f7944" d="M 196.5,40.5 C 196.078,44.8786 195.411,49.212 194.5,53.5C 198.743,53.6532 203.076,53.8199 207.5,54C 208.044,54.7172 208.711,55.2172 209.5,55.5C 210.11,56.391 210.443,57.391 210.5,58.5C 209.078,58.2504 208.078,57.417 207.5,56C 203.465,55.3035 199.465,55.4701 195.5,56.5C 193.046,55.5284 190.879,54.1951 189,52.5C 186.667,53.4129 184.834,54.9129 183.5,57C 184.574,57.7387 185.241,58.7387 185.5,60C 184.004,61.3307 182.671,62.8307 181.5,64.5C 182.002,65.521 182.668,65.6877 183.5,65C 185.638,62.6289 188.138,60.7956 191,59.5C 193.334,61.02 195.834,62.02 198.5,62.5C 196.265,62.2053 194.265,62.5386 192.5,63.5C 190.272,67.2424 189.938,71.2424 191.5,75.5C 189.955,76.2297 189.122,77.563 189,79.5C 188.891,74.3859 188.224,69.3859 187,64.5C 186.362,67.6009 185.195,70.2676 183.5,72.5C 184.519,70.4595 184.519,68.4595 183.5,66.5C 182.06,67.9524 180.394,68.9524 178.5,69.5C 174.833,69.5 171.167,69.5 167.5,69.5C 170.028,68.8343 172.694,68.1676 175.5,67.5C 174.675,66.6143 173.675,66.281 172.5,66.5C 172.5,65.5 172.5,64.5 172.5,63.5C 174.638,63.703 176.305,64.703 177.5,66.5C 178.666,64.6351 178.333,62.9684 176.5,61.5C 175.264,62.2458 173.93,62.5792 172.5,62.5C 175.764,59.8526 179.097,57.1859 182.5,54.5C 184.616,52.6001 185.949,50.2668 186.5,47.5C 186.833,47.5 187.167,47.5 187.5,47.5C 188.859,48.0065 189.859,49.0065 190.5,50.5C 191.736,51.2458 193.07,51.5792 194.5,51.5C 194.116,47.5115 194.783,43.8448 196.5,40.5 Z"/></g>
<g><path style="opacity:1" fill="#e1d6c1" d="M 407.5,39.5 C 409.449,41.2969 411.116,43.2969 412.5,45.5C 410.547,44.0947 409.547,44.7614 409.5,47.5C 408.476,56.1406 407.81,64.8073 407.5,73.5C 406.167,72.1667 404.833,72.1667 403.5,73.5C 405.49,62.2616 406.823,50.9283 407.5,39.5 Z"/></g>
<g><path style="opacity:1" fill="#faf8f4" d="M 192.5,63.5 C 194.167,63.5 195.833,63.5 197.5,63.5C 197.5,65.8333 197.5,68.1667 197.5,70.5C 197.5,70.8333 197.5,71.1667 197.5,71.5C 197.06,73.8439 196.06,75.8439 194.5,77.5C 192.973,77.573 191.973,76.9063 191.5,75.5C 189.938,71.2424 190.272,67.2424 192.5,63.5 Z"/></g>
<g><path style="opacity:1" fill="#d3c7a8" d="M 280.5,59.5 C 281.117,59.6107 281.617,59.944 282,60.5C 282.805,63.6965 282.638,66.6965 281.5,69.5C 281.658,66.0977 281.324,62.7644 280.5,59.5 Z"/></g>
<g><path style="opacity:1" fill="#efeadd" d="M 303.5,59.5 C 302.578,64.4724 302.412,69.4724 303,74.5C 304.14,76.2792 305.307,77.9459 306.5,79.5C 299.8,79.83 293.134,79.4967 286.5,78.5C 291.24,75.3478 293.573,71.0145 293.5,65.5C 293.146,69.6372 293.646,73.6372 295,77.5C 295.333,77.1667 295.667,76.8333 296,76.5C 297.401,78.1922 299.234,78.8588 301.5,78.5C 301.78,73.6866 301.114,69.0199 299.5,64.5C 299.846,63.3044 300.346,63.3044 301,64.5C 301.374,62.5087 302.207,60.842 303.5,59.5 Z"/></g>
<g><path style="opacity:1" fill="#e0d6bb" d="M 575.5,49.5 C 575.194,52.3854 575.527,55.0521 576.5,57.5C 576.167,61.5 575.833,65.5 575.5,69.5C 575.167,69.5 574.833,69.5 574.5,69.5C 574.815,66.7892 574.148,64.4559 572.5,62.5C 573.956,58.268 574.956,53.9347 575.5,49.5 Z"/></g>
<g><path style="opacity:1" fill="#8b7831" d="M 167.5,69.5 C 164.752,69.5983 164.086,68.5983 165.5,66.5C 167.35,64.4284 169.683,63.0951 172.5,62.5C 173.93,62.5792 175.264,62.2458 176.5,61.5C 178.333,62.9684 178.666,64.6351 177.5,66.5C 176.305,64.703 174.638,63.703 172.5,63.5C 172.5,64.5 172.5,65.5 172.5,66.5C 173.675,66.281 174.675,66.6143 175.5,67.5C 172.694,68.1676 170.028,68.8343 167.5,69.5 Z"/></g>
<g><path style="opacity:1" fill="#ad9f7a" d="M 266.5,57.5 C 264.167,57.5 261.833,57.5 259.5,57.5C 258.833,63.1667 258.167,68.8333 257.5,74.5C 256.848,73.5514 256.514,72.3847 256.5,71C 257.331,66.1801 257.998,61.3468 258.5,56.5C 261.385,56.1936 264.052,56.5269 266.5,57.5 Z"/></g>
<g><path style="opacity:1" fill="#f8f5ed" d="M 331.5,39.5 C 328.634,41.5459 326.467,44.2126 325,47.5C 324.333,52.8333 324.333,58.1667 325,63.5C 326.026,66.2387 327.526,68.572 329.5,70.5C 330.343,72.1733 331.676,73.34 333.5,74C 337.167,74.6667 340.833,74.6667 344.5,74C 345.416,73.7216 346.082,73.2216 346.5,72.5C 347.807,71.8466 349.14,71.1799 350.5,70.5C 351.521,71.0016 351.688,71.6683 351,72.5C 344.193,79.1802 336.026,81.3468 326.5,79C 324.047,78.0406 321.714,76.874 319.5,75.5C 312.709,63.7994 313.375,52.4661 321.5,41.5C 323.001,40.2485 324.668,39.2485 326.5,38.5C 327.695,38.3225 328.862,37.9891 330,37.5C 331.03,37.8361 331.53,38.5028 331.5,39.5 Z"/></g>
<g><path style="opacity:1" fill="#decca1" d="M 543.5,57.5 C 543.205,59.7354 543.539,61.7354 544.5,63.5C 544.5,64.8333 544.5,66.1667 544.5,67.5C 544.5,69.1667 544.5,70.8333 544.5,72.5C 543.833,70.5 543.167,68.5 542.5,66.5C 542.19,63.2869 542.523,60.2869 543.5,57.5 Z"/></g>
<g><path style="opacity:1" fill="#c4b597" d="M 827.5,56.5 C 827.392,61.7105 826.725,66.7105 825.5,71.5C 825.189,66.2336 825.855,61.2336 827.5,56.5 Z"/></g>
<g><path style="opacity:1" fill="#bbad8c" d="M 908.5,61.5 C 909.638,64.3035 909.805,67.3035 909,70.5C 908.617,71.056 908.117,71.3893 907.5,71.5C 908.324,68.2356 908.658,64.9023 908.5,61.5 Z"/></g>
<g><path style="opacity:1" fill="#ede2c8" d="M 1149.5,41.5 C 1148.6,40.791 1148.26,39.791 1148.5,38.5C 1147.5,38.5 1146.5,38.5 1145.5,38.5C 1145.29,41.475 1144.29,44.1416 1142.5,46.5C 1143.64,49.3992 1144.31,52.3992 1144.5,55.5C 1143.22,53.4375 1142.39,51.1042 1142,48.5C 1139.55,52.3944 1137.39,56.3944 1135.5,60.5C 1134.96,60.56 1134.62,60.8933 1134.5,61.5C 1138.31,62.8077 1141.98,62.8077 1145.5,61.5C 1144.7,59.9582 1144.37,58.2915 1144.5,56.5C 1146.22,58.78 1146.89,61.4467 1146.5,64.5C 1141.79,64.1734 1137.12,64.5067 1132.5,65.5C 1130.34,68.1485 1129.01,71.1485 1128.5,74.5C 1127.83,73.8333 1127.17,73.1667 1126.5,72.5C 1132.81,60.5537 1139.14,48.5537 1145.5,36.5C 1146.5,35.1667 1147.5,35.1667 1148.5,36.5C 1149.31,38.0709 1149.64,39.7376 1149.5,41.5 Z"/></g>
<g><path style="opacity:1" fill="#9f906d" d="M 1135.5,60.5 C 1138.62,61.4794 1141.96,61.8128 1145.5,61.5C 1141.98,62.8077 1138.31,62.8077 1134.5,61.5C 1134.62,60.8933 1134.96,60.56 1135.5,60.5 Z"/></g>
<g><path style="opacity:1" fill="#8d763a" d="M 266.5,57.5 C 268.735,58.2279 270.568,59.5612 272,61.5C 272.579,65.2027 272.412,68.8694 271.5,72.5C 267.628,77.5872 262.962,78.5872 257.5,75.5C 257.5,75.1667 257.5,74.8333 257.5,74.5C 258.167,68.8333 258.833,63.1667 259.5,57.5C 261.833,57.5 264.167,57.5 266.5,57.5 Z"/></g>
<g><path style="opacity:1" fill="#8d7535" d="M 847.5,58.5 C 847.5,58.8333 847.5,59.1667 847.5,59.5C 849.085,62.5927 850.085,65.9261 850.5,69.5C 849.481,71.5107 848.481,73.5107 847.5,75.5C 843.802,75.4476 840.135,75.1143 836.5,74.5C 836.472,69.1383 836.806,63.8049 837.5,58.5C 840.833,58.5 844.167,58.5 847.5,58.5 Z"/></g>
<g><path style="opacity:1" fill="#8d7737" d="M 100.5,59.5 C 103.512,62.3686 102.845,63.7019 98.5,63.5C 98.33,64.8221 98.6634,65.9887 99.5,67C 95.5715,68.3248 91.5715,68.6582 87.5,68C 89.2495,66.6814 91.2495,66.1814 93.5,66.5C 93.5,65.5 93.5,64.5 93.5,63.5C 95.6626,61.9172 97.9959,60.5839 100.5,59.5 Z"/></g>
<g><path style="opacity:1" fill="#f2ebd0" d="M 192.5,63.5 C 194.265,62.5386 196.265,62.2053 198.5,62.5C 199.973,65.4519 199.64,68.1186 197.5,70.5C 197.5,68.1667 197.5,65.8333 197.5,63.5C 195.833,63.5 194.167,63.5 192.5,63.5 Z"/></g>
<g><path style="opacity:1" fill="#b6a37d" d="M 700.5,52.5 C 700.111,60.1637 699.778,67.8304 699.5,75.5C 698.128,67.7774 698.461,60.1107 700.5,52.5 Z"/></g>
<g><path style="opacity:1" fill="#ede6d7" d="M 1103.5,51.5 C 1103.64,54.35 1103.97,57.1834 1104.5,60C 1102.87,65.0615 1101.71,70.2282 1101,75.5C 1100.1,76.7014 1098.93,77.5348 1097.5,78C 1102.68,78.8163 1107.68,78.6497 1112.5,77.5C 1113.38,77.3691 1114.04,77.7025 1114.5,78.5C 1107.5,79.8333 1100.5,79.8333 1093.5,78.5C 1096.46,77.3709 1098.63,75.3709 1100,72.5C 1101.1,65.3468 1102.26,58.3468 1103.5,51.5 Z"/></g>
<g><path style="opacity:1" fill="#8e7639" d="M 210.5,58.5 C 211.793,63.884 211.46,69.2174 209.5,74.5C 206.322,77.2202 202.655,78.0536 198.5,77C 197.594,75.3005 197.261,73.4672 197.5,71.5C 197.5,71.1667 197.5,70.8333 197.5,70.5C 199.64,68.1186 199.973,65.4519 198.5,62.5C 195.834,62.02 193.334,61.02 191,59.5C 188.138,60.7956 185.638,62.6289 183.5,65C 182.668,65.6877 182.002,65.521 181.5,64.5C 182.671,62.8307 184.004,61.3307 185.5,60C 185.241,58.7387 184.574,57.7387 183.5,57C 184.834,54.9129 186.667,53.4129 189,52.5C 190.879,54.1951 193.046,55.5284 195.5,56.5C 199.465,55.4701 203.465,55.3035 207.5,56C 208.078,57.417 209.078,58.2504 210.5,58.5 Z"/></g>
<g><path style="opacity:1" fill="#f1eadb" d="M 741.5,63.5 C 741.104,66.0444 741.771,68.2111 743.5,70C 742.833,70.3333 742.167,70.6667 741.5,71C 742.833,71.6667 742.833,72.3333 741.5,73C 742.094,73.4643 742.761,73.631 743.5,73.5C 741.599,75.7957 739.266,77.629 736.5,79C 730.843,79.4994 725.176,79.6661 719.5,79.5C 717.194,77.8606 715.194,75.8606 713.5,73.5C 716.336,74.1684 718.836,75.5018 721,77.5C 721.765,77.4301 722.265,77.0967 722.5,76.5C 726.574,77.9904 730.574,77.8238 734.5,76C 737.777,72.2721 740.11,68.1054 741.5,63.5 Z"/></g>
<g><path style="opacity:1" fill="#8d7639" d="M 903.5,57.5 C 903.842,58.3382 904.508,58.6716 905.5,58.5C 906.694,59.2719 907.694,60.2719 908.5,61.5C 908.658,64.9023 908.324,68.2356 907.5,71.5C 907.489,73.0174 906.823,74.1841 905.5,75C 896.477,80.2397 892.477,77.7397 893.5,67.5C 894.201,64.4371 894.868,61.2704 895.5,58C 898.146,57.5026 900.813,57.3359 903.5,57.5 Z"/></g>
<g><path style="opacity:1" fill="#e7d6c1" d="M 392.5,73.5 C 392.649,72.448 392.483,71.448 392,70.5C 391.292,71.3805 390.458,72.0472 389.5,72.5C 390.63,70.6854 391.296,68.6854 391.5,66.5C 392.5,66.5 393.5,66.5 394.5,66.5C 394.279,69.0673 393.612,71.4006 392.5,73.5 Z"/></g>
<g><path style="opacity:1" fill="#e3d8c6" d="M 835.5,63.5 C 835.5,67.5 835.5,71.5 835.5,75.5C 833.04,71.5502 833.04,67.5502 835.5,63.5 Z"/></g>
<g><path style="opacity:1" fill="#f8f5ee" d="M 104.5,36.5 C 110.192,38.0017 112.025,41.6684 110,47.5C 109.345,49.6284 108.511,51.6284 107.5,53.5C 105.142,55.5293 102.808,57.5293 100.5,59.5C 97.9959,60.5839 95.6626,61.9172 93.5,63.5C 89.2294,64.6357 85.5627,66.8023 82.5,70C 89.4969,70.0778 96.4969,69.7445 103.5,69C 104.713,66.6743 106.046,66.3409 107.5,68C 106.767,70.8348 106.1,73.6681 105.5,76.5C 104.596,77.209 104.263,78.209 104.5,79.5C 94.8333,79.5 85.1667,79.5 75.5,79.5C 75.523,77.0733 76.023,74.74 77,72.5C 85.3548,64.6456 93.1881,56.3122 100.5,47.5C 101.48,44.9135 101.813,42.2469 101.5,39.5C 101.586,38.5041 101.252,37.6708 100.5,37C 101.793,36.51 103.127,36.3433 104.5,36.5 Z"/></g>
<g><path style="opacity:1" fill="#faf8f2" d="M 186.5,47.5 C 185.949,50.2668 184.616,52.6001 182.5,54.5C 179.097,57.1859 175.764,59.8526 172.5,62.5C 169.683,63.0951 167.35,64.4284 165.5,66.5C 163.063,66.886 161.063,68.0527 159.5,70C 166.014,70.82 172.347,70.6533 178.5,69.5C 180.394,68.9524 182.06,67.9524 183.5,66.5C 184.519,68.4595 184.519,70.4595 183.5,72.5C 182.28,74.2821 181.614,76.2821 181.5,78.5C 171.833,78.5 162.167,78.5 152.5,78.5C 152.5,77.5 152.5,76.5 152.5,75.5C 153.44,73.3875 154.606,71.3875 156,69.5C 162.583,63.9212 168.916,57.9212 175,51.5C 177.863,47.6202 179.03,43.2868 178.5,38.5C 178.56,37.9569 178.893,37.6236 179.5,37.5C 184.614,38.7236 186.947,42.0569 186.5,47.5 Z"/></g>
<g><path style="opacity:1" fill="#af9f76" d="M 165.5,66.5 C 164.086,68.5983 164.752,69.5983 167.5,69.5C 171.167,69.5 174.833,69.5 178.5,69.5C 172.347,70.6533 166.014,70.82 159.5,70C 161.063,68.0527 163.063,66.886 165.5,66.5 Z"/></g>
<g><path style="opacity:1" fill="#d8c9b1" d="M 779.5,57.5 C 779.412,62.5364 778.912,67.5364 778,72.5C 777.943,74.9102 776.776,76.2435 774.5,76.5C 775.801,75.1184 776.634,73.4517 777,71.5C 777.354,66.6107 778.187,61.944 779.5,57.5 Z"/></g>
<g><path style="opacity:1" fill="#a49365" d="M 1032.5,60.5 C 1032.27,65.8947 1032.6,71.228 1033.5,76.5C 1032.88,76.3893 1032.38,76.056 1032,75.5C 1031.18,70.3158 1031.35,65.3158 1032.5,60.5 Z"/></g>
<g><path style="opacity:1" fill="#efe8cd" d="M 116.5,69.5 C 118.657,72.6316 120.99,75.6316 123.5,78.5C 119.496,76.837 117.163,73.837 116.5,69.5 Z"/></g>
<g><path style="opacity:1" fill="#a69577" d="M 857.5,66.5 C 858.794,68.68 858.461,70.68 856.5,72.5C 856.517,70.4352 856.85,68.4352 857.5,66.5 Z"/></g>
<g><path style="opacity:1" fill="#ada082" d="M 1022.5,63.5 C 1022.66,66.1873 1022.5,68.854 1022,71.5C 1021.72,72.4158 1021.22,73.0825 1020.5,73.5C 1020.9,69.9891 1021.57,66.6557 1022.5,63.5 Z"/></g>
<g><path style="opacity:1" fill="#f0e8cf" d="M 363.5,65.5 C 363.664,68.1873 363.497,70.854 363,73.5C 362.252,75.751 360.752,77.0844 358.5,77.5C 361.315,73.883 362.982,69.883 363.5,65.5 Z"/></g>
<g><path style="opacity:1" fill="#907946" d="M 510.5,65.5 C 510.336,68.1873 510.503,70.854 511,73.5C 512.153,71.503 513.653,71.1696 515.5,72.5C 514.619,73.9705 513.286,74.8038 511.5,75C 515.211,75.4389 518.878,75.1056 522.5,74C 523.174,72.2494 523.507,70.5827 523.5,69C 525.066,68.235 526.399,68.4017 527.5,69.5C 524.163,75.9996 518.83,78.4996 511.5,77C 510.619,76.2917 509.953,75.4584 509.5,74.5C 509.19,71.2869 509.523,68.2869 510.5,65.5 Z"/></g>
<g><path style="opacity:1" fill="#928251" d="M 1146.5,64.5 C 1147.84,66.3495 1148.5,68.5161 1148.5,71C 1148.69,73.0081 1148.03,74.5081 1146.5,75.5C 1146.5,72.1667 1146.5,68.8333 1146.5,65.5C 1142.17,65.9167 1137.83,66.4167 1133.5,67C 1132.59,69.2321 1131.59,71.3987 1130.5,73.5C 1130.56,75.7665 1131.39,76.4332 1133,75.5C 1133.76,77.0657 1133.6,78.3991 1132.5,79.5C 1132.5,78.1667 1131.83,77.5 1130.5,77.5C 1129.83,76.5 1129.17,75.5 1128.5,74.5C 1129.01,71.1485 1130.34,68.1485 1132.5,65.5C 1137.12,64.5067 1141.79,64.1734 1146.5,64.5 Z"/></g>
<g><path style="opacity:1" fill="#a3956c" d="M 329.5,70.5 C 334.829,73.5408 340.496,74.2075 346.5,72.5C 346.082,73.2216 345.416,73.7216 344.5,74C 340.833,74.6667 337.167,74.6667 333.5,74C 331.676,73.34 330.343,72.1733 329.5,70.5 Z"/></g>
<g><path style="opacity:1" fill="#937e4b" d="M 709.5,54.5 C 709.335,58.1817 709.501,61.8484 710,65.5C 710.316,68.6412 711.483,71.3078 713.5,73.5C 715.194,75.8606 717.194,77.8606 719.5,79.5C 716.937,78.8001 714.437,77.8001 712,76.5C 710.503,77.4773 709.003,78.4773 707.5,79.5C 705.166,78.0524 705.499,76.7191 708.5,75.5C 708.833,74 709.167,72.5 709.5,71C 708.389,65.3363 708.389,59.8363 709.5,54.5 Z"/></g>
<g><path style="opacity:1" fill="#b9ab87" d="M 530.5,71.5 C 530.977,74.9175 529.977,77.5841 527.5,79.5C 527.5,79.1667 527.5,78.8333 527.5,78.5C 528.651,76.2209 529.651,73.8876 530.5,71.5 Z"/></g>
<g><path style="opacity:1" fill="#938353" d="M 847.5,58.5 C 844.167,58.5 840.833,58.5 837.5,58.5C 836.806,63.8049 836.472,69.1383 836.5,74.5C 840.135,75.1143 843.802,75.4476 847.5,75.5C 843.477,78.0052 839.477,78.0052 835.5,75.5C 835.5,71.5 835.5,67.5 835.5,63.5C 835.5,61.5 835.5,59.5 835.5,57.5C 839.702,57.1832 843.702,57.5166 847.5,58.5 Z"/></g>
<g><path style="opacity:1" fill="#907844" d="M 107.5,53.5 C 106.519,55.4893 105.519,57.4893 104.5,59.5C 104.529,61.0293 105.196,62.196 106.5,63C 105.376,63.2492 104.376,63.7492 103.5,64.5C 104.167,64.8333 104.833,65.1667 105.5,65.5C 107.976,64.1851 110.143,62.5185 112,60.5C 112.667,62.1667 112.667,63.8333 112,65.5C 111.667,64.8333 111.333,64.1667 111,63.5C 109.677,67.1084 109.011,70.7751 109,74.5C 110.667,73.1667 112.333,71.8333 114,70.5C 114.175,65.9805 114.675,61.6472 115.5,57.5C 115.185,61.3714 115.518,65.0381 116.5,68.5C 116.5,68.8333 116.5,69.1667 116.5,69.5C 117.163,73.837 119.496,76.837 123.5,78.5C 123.5,78.8333 123.5,79.1667 123.5,79.5C 119.077,79.2555 116.244,76.9222 115,72.5C 114.667,74.1667 114.333,75.8333 114,77.5C 111.256,77.7863 108.423,77.453 105.5,76.5C 106.1,73.6681 106.767,70.8348 107.5,68C 106.046,66.3409 104.713,66.6743 103.5,69C 96.4969,69.7445 89.4969,70.0778 82.5,70C 85.5627,66.8023 89.2294,64.6357 93.5,63.5C 93.5,64.5 93.5,65.5 93.5,66.5C 91.2495,66.1814 89.2495,66.6814 87.5,68C 91.5715,68.6582 95.5715,68.3248 99.5,67C 98.6634,65.9887 98.33,64.8221 98.5,63.5C 102.845,63.7019 103.512,62.3686 100.5,59.5C 102.808,57.5293 105.142,55.5293 107.5,53.5 Z"/></g>
<g><path style="opacity:1" fill="#efe9db" d="M 542.5,66.5 C 543.167,68.5 543.833,70.5 544.5,72.5C 545.812,75.1451 547.812,77.1451 550.5,78.5C 545.167,79.8333 539.833,79.8333 534.5,78.5C 539.147,75.8868 541.814,71.8868 542.5,66.5 Z"/></g>
<g><path style="opacity:1" fill="#efe9db" d="M 278.5,57.5 C 279.5,57.8333 280.167,58.5 280.5,59.5C 281.324,62.7644 281.658,66.0977 281.5,69.5C 279.801,74.5325 276.468,77.8658 271.5,79.5C 261.478,79.8319 251.478,79.4985 241.5,78.5C 241.624,77.8933 241.957,77.56 242.5,77.5C 247.305,78.4872 252.305,78.8205 257.5,78.5C 257.5,77.5 257.5,76.5 257.5,75.5C 262.962,78.5872 267.628,77.5872 271.5,72.5C 271.791,73.6491 272.624,74.3158 274,74.5C 274.833,74.3333 275.667,74.1667 276.5,74C 280.975,68.9418 281.642,63.4418 278.5,57.5 Z"/></g>
<g><path style="opacity:1" fill="#a69c6e" d="M 574.5,69.5 C 574.833,69.5 575.167,69.5 575.5,69.5C 575.5,72.8333 575.5,76.1667 575.5,79.5C 573.901,79.7678 572.568,79.4345 571.5,78.5C 572.931,78.1193 573.764,77.1193 574,75.5C 574.495,73.5273 574.662,71.5273 574.5,69.5 Z"/></g>
<g><path style="opacity:1" fill="#fbf6ed" d="M 592.5,76.5 C 592.842,77.3382 593.508,77.6716 594.5,77.5C 590.5,78.8333 586.5,78.8333 582.5,77.5C 584.5,76.1667 586.5,74.8333 588.5,73.5C 589.458,73.0472 590.292,72.3805 591,71.5C 591.198,73.3817 591.698,75.0484 592.5,76.5 Z"/></g>
<g><path style="opacity:1" fill="#efe9d8" d="M 197.5,71.5 C 197.261,73.4672 197.594,75.3005 198.5,77C 202.655,78.0536 206.322,77.2202 209.5,74.5C 209.47,75.4972 209.97,76.1639 211,76.5C 212.597,75.1153 214.43,74.4486 216.5,74.5C 214.467,77.0128 211.801,78.5128 208.5,79C 204.167,79.6667 199.833,79.6667 195.5,79C 194.944,78.6174 194.611,78.1174 194.5,77.5C 196.06,75.8439 197.06,73.8439 197.5,71.5 Z"/></g>
<g><path style="opacity:1" fill="#faf6ec" d="M 407.5,73.5 C 408.539,75.5311 410.205,76.8645 412.5,77.5C 408.019,78.6484 403.352,78.8151 398.5,78C 399.056,77.6174 399.389,77.1174 399.5,76.5C 400.833,75.5 402.167,74.5 403.5,73.5C 404.833,72.1667 406.167,72.1667 407.5,73.5 Z"/></g>
<g><path style="opacity:1" fill="#fbf6f0" d="M 1126.5,72.5 C 1127.17,73.1667 1127.83,73.8333 1128.5,74.5C 1129.17,75.5 1129.83,76.5 1130.5,77.5C 1126.83,78.8333 1123.17,78.8333 1119.5,77.5C 1122.09,76.2464 1124.43,74.5798 1126.5,72.5 Z"/></g>
<g><path style="opacity:1" fill="#d6cebf" d="M 152.5,75.5 C 152.5,76.5 152.5,77.5 152.5,78.5C 162.167,78.5 171.833,78.5 181.5,78.5C 171.681,79.494 161.681,79.8274 151.5,79.5C 151.232,77.901 151.566,76.5676 152.5,75.5 Z"/></g>
<g><path style="opacity:1" fill="#d6cfc5" d="M 356.5,77.5 C 367.988,78.4949 379.655,78.8283 391.5,78.5C 379.66,79.8245 367.66,79.8245 355.5,78.5C 355.624,77.8933 355.957,77.56 356.5,77.5 Z"/></g>
<g><path style="opacity:1" fill="#d6cabd" d="M 399.5,76.5 C 399.389,77.1174 399.056,77.6174 398.5,78C 403.352,78.8151 408.019,78.6484 412.5,77.5C 413.043,77.56 413.376,77.8933 413.5,78.5C 408.208,79.4948 402.875,79.8282 397.5,79.5C 397.285,77.8212 397.952,76.8212 399.5,76.5 Z"/></g>
<g><path style="opacity:1" fill="#d0c4a2" d="M 437.5,74.5 C 437.5,76.1667 437.5,77.8333 437.5,79.5C 435.62,79.7709 434.287,79.1042 433.5,77.5C 434.496,77.4142 435.329,77.7476 436,78.5C 436.21,76.9419 436.71,75.6085 437.5,74.5 Z"/></g>
<g><path style="opacity:1" fill="#d8cfc6" d="M 476.5,77.5 C 477.376,77.3691 478.043,77.7025 478.5,78.5C 472.202,79.4963 465.868,79.8297 459.5,79.5C 465.167,78.8333 470.833,78.1667 476.5,77.5 Z"/></g>
<g><path style="opacity:1" fill="#dbd4c5" d="M 499.5,71.5 C 499.919,74.3245 498.919,76.4912 496.5,78C 506.828,78.4998 517.161,78.6665 527.5,78.5C 527.5,78.8333 527.5,79.1667 527.5,79.5C 515.814,79.8322 504.148,79.4989 492.5,78.5C 495.876,77.1239 498.21,74.7906 499.5,71.5 Z"/></g>
<g><path style="opacity:1" fill="#d8d0c4" d="M 582.5,77.5 C 586.5,78.8333 590.5,78.8333 594.5,77.5C 595.043,77.56 595.376,77.8933 595.5,78.5C 590.833,79.8333 586.167,79.8333 581.5,78.5C 581.624,77.8933 581.957,77.56 582.5,77.5 Z"/></g>
<g><path style="opacity:1" fill="#d5d0c4" d="M 627.5,77.5 C 628.043,77.56 628.376,77.8933 628.5,78.5C 621.344,79.8188 614.344,79.8188 607.5,78.5C 614.354,78.824 621.021,78.4907 627.5,77.5 Z"/></g>
<g><path style="opacity:1" fill="#d9d4c6" d="M 649.5,75.5 C 650.815,76.4756 652.148,77.4756 653.5,78.5C 647.202,79.4963 640.868,79.8297 634.5,79.5C 639.305,78.5128 644.305,78.1795 649.5,78.5C 649.5,77.5 649.5,76.5 649.5,75.5 Z"/></g>
<g><path style="opacity:1" fill="#d6cec0" d="M 659.5,76.5 C 659.389,77.1174 659.056,77.6174 658.5,78C 664.349,78.8184 670.015,78.6517 675.5,77.5C 676.043,77.56 676.376,77.8933 676.5,78.5C 670.202,79.4963 663.868,79.8297 657.5,79.5C 657.285,77.8212 657.952,76.8212 659.5,76.5 Z"/></g>
<g><path style="opacity:1" fill="#d5ccbf" d="M 683.5,77.5 C 689.5,78.8333 695.5,78.8333 701.5,77.5C 702.376,77.3691 703.043,77.7025 703.5,78.5C 696.167,79.8333 688.833,79.8333 681.5,78.5C 681.957,77.7025 682.624,77.3691 683.5,77.5 Z"/></g>
<g><path style="opacity:1" fill="#d7d1c4" d="M 772.5,77.5 C 781.318,78.4933 790.318,78.8266 799.5,78.5C 790.325,79.8222 780.992,79.8222 771.5,78.5C 771.624,77.8933 771.957,77.56 772.5,77.5 Z"/></g>
<g><path style="opacity:1" fill="#d6cfc3" d="M 822.5,76.5 C 822.082,77.2216 821.416,77.7216 820.5,78C 831.828,78.4999 843.162,78.6665 854.5,78.5C 854.5,78.8333 854.5,79.1667 854.5,79.5C 842.482,79.8323 830.482,79.499 818.5,78.5C 819.32,76.8888 820.654,76.2222 822.5,76.5 Z"/></g>
<g><path style="opacity:1" fill="#d6cfc5" d="M 879.5,77.5 C 888.986,78.4938 898.652,78.8271 908.5,78.5C 898.326,79.8232 887.993,79.8232 877.5,78.5C 877.957,77.7025 878.624,77.3691 879.5,77.5 Z"/></g>
<g><path style="opacity:1" fill="#dcd6ca" d="M 977.5,73.5 C 977.773,75.451 977.107,76.951 975.5,78C 986.161,78.4998 996.828,78.6665 1007.5,78.5C 995.66,79.8245 983.66,79.8245 971.5,78.5C 973.491,76.8357 975.491,75.169 977.5,73.5 Z"/></g>
<g><path style="opacity:1" fill="#d6cdbf" d="M 1016.5,77.5 C 1022.5,78.8333 1028.5,78.8333 1034.5,77.5C 1035.38,77.3691 1036.04,77.7025 1036.5,78.5C 1029.17,79.8333 1021.83,79.8333 1014.5,78.5C 1014.96,77.7025 1015.62,77.3691 1016.5,77.5 Z"/></g>
<g><path style="opacity:1" fill="#bfbc9d" d="M 1063.5,76.5 C 1064.22,77.5511 1065.22,78.2178 1066.5,78.5C 1065.79,79.404 1064.79,79.7373 1063.5,79.5C 1063.5,78.5 1063.5,77.5 1063.5,76.5 Z"/></g>
<g><path style="opacity:1" fill="#dacfc3" d="M 1119.5,77.5 C 1123.17,78.8333 1126.83,78.8333 1130.5,77.5C 1131.83,77.5 1132.5,78.1667 1132.5,79.5C 1127.79,79.8266 1123.12,79.4933 1118.5,78.5C 1118.62,77.8933 1118.96,77.56 1119.5,77.5 Z"/></g>
<g><path style="opacity:1" fill="#d7cfc2" d="M 1146.5,76.5 C 1146.39,77.1174 1146.06,77.6174 1145.5,78C 1152.01,78.82 1158.35,78.6533 1164.5,77.5C 1165.04,77.56 1165.38,77.8933 1165.5,78.5C 1158.17,79.8333 1150.83,79.8333 1143.5,78.5C 1144,77.0815 1145,76.4148 1146.5,76.5 Z"/></g>
</svg>
