<?xml version="1.0" encoding="UTF-8"?>
<svg version="1.1" xmlns="http://www.w3.org/2000/svg" width="274" height="133">
<path d="M0 0 C90.42 0 180.84 0 274 0 C274 43.89 274 87.78 274 133 C183.58 133 93.16 133 0 133 C0 89.11 0 45.22 0 0 Z " fill="#F6F5F3" transform="translate(0,0)"/>
<path d="M0 0 C21.78 0 43.56 0 66 0 C66 43.89 66 87.78 66 133 C-5.28 133 -76.56 133 -150 133 C-147.89891242 128.79782483 -141.74312844 127.67043401 -137.5625 126.0625 C-135.76274146 125.31625865 -133.99264327 124.49632163 -132.25 123.625 C-128.93435838 121.96717919 -125.57458875 120.47035871 -122.1796875 118.984375 C-120.29885174 118.1349653 -118.45709824 117.19997686 -116.625 116.25 C-114 115 -114 115 -111 115 C-110.67 114.34 -110.34 113.68 -110 113 C-108 112.33333333 -106 111.66666667 -104 111 C-101.45737919 109.78723679 -98.95431333 108.50727636 -96.4453125 107.2265625 C-93.35251032 105.67522083 -90.19168238 104.33470354 -87 103 C-85.60300407 102.37760298 -84.20725984 101.75239197 -82.8125 101.125 C-79.17118681 99.49763229 -75.49999738 97.95722355 -71.8125 96.4375 C-67.01319663 94.44947853 -62.3790213 92.29146871 -57.8125 89.8125 C-56 89 -56 89 -53 89 C-52.67 88.34 -52.34 87.68 -52 87 C-50.67694005 86.6279768 -49.34135377 86.29943106 -48 86 C-46.15270631 85.09314673 -44.30748729 84.18165078 -42.4765625 83.2421875 C-37.38446677 80.68810794 -32.18501447 78.35802569 -27 76 C-26.24589844 75.65324219 -25.49179688 75.30648437 -24.71484375 74.94921875 C-21.93533775 73.70404727 -20.08857417 73 -17 73 C-16.67 72.34 -16.34 71.68 -16 71 C-14.29296875 70.21875 -14.29296875 70.21875 -12.1875 69.5 C-9.91371812 68.70011602 -7.83576815 67.91566473 -5.6875 66.8125 C-4 66 -4 66 -1 66 C-0.67 65.34 -0.34 64.68 0 64 C1.96875 63.10546875 1.96875 63.10546875 4.5 62.1875 C8.12164389 60.81127532 11.41151135 59.27698482 14.75 57.3125 C18.18634135 55.31406035 21.02543233 54.49682096 25 54 C25.33 53.34 25.66 52.68 26 52 C26.99 52.33 27.98 52.66 29 53 C29.33 52.34 29.66 51.68 30 51 C32.62581138 49.42451317 33.87099787 49 37 49 C37.33 48.34 37.66 47.68 38 47 C39.6796875 46.10546875 39.6796875 46.10546875 41.875 45.1875 C46.46808862 43.23268148 50.99517702 41.1595351 55.51953125 39.05078125 C57.6858289 38.1330898 59.70473064 37.48687532 62 37 C62 35.68 62 34.36 62 33 C59.58944746 31.33700035 59.58944746 31.33700035 57 30 C56.67 29.34 56.34 28.68 56 28 C55.34 28 54.68 28 54 28 C54 27.34 54 26.68 54 26 C52.71029297 25.86271484 52.71029297 25.86271484 51.39453125 25.72265625 C47.5451282 24.90316308 45.03931674 23.48873156 41.6875 21.4375 C36.41599151 18.29580049 31.07189184 15.50860851 25.5 12.9375 C24.79045166 12.60983643 24.08090332 12.28217285 23.34985352 11.94458008 C22.64401123 11.61868896 21.93816895 11.29279785 21.2109375 10.95703125 C17.14765936 9.08087954 13.12851443 7.12517188 9.125 5.125 C8.01382813 4.57070312 6.90265625 4.01640625 5.7578125 3.4453125 C3 2 3 2 0 0 Z " fill="#FEFEFE" transform="translate(208,0)"/>
<path d="M0 0 C40.92 0 81.84 0 124 0 C124 0.66 124 1.32 124 2 C125.0828125 2.1546875 125.0828125 2.1546875 126.1875 2.3125 C130.53385096 3.37494135 133.20094598 4.78662168 135.6875 8.5625 C136.120625 9.366875 136.55375 10.17125 137 11 C137.99 11.99 137.99 11.99 139 13 C141.06392811 19.73961711 142.8792504 28.32320574 139.5625 34.8125 C139.046875 35.534375 138.53125 36.25625 138 37 C137.896875 37.66 137.79375 38.32 137.6875 39 C136.73364594 41.77484818 134.8084436 43.02178514 132.5390625 44.76953125 C130.83734985 46.05828061 130.83734985 46.05828061 129.0625 48.1875 C126.25871462 50.65143261 123.60850766 51.17700702 120 52 C119.195625 52.20625 118.39125 52.4125 117.5625 52.625 C107.79156725 54.0548926 99.77709188 52.15260261 91 48 C89.88625 47.54625 88.7725 47.0925 87.625 46.625 C83.53474591 44.79143782 79.6596026 42.68111379 75.74609375 40.5 C72.86324449 38.92529997 69.94457394 37.45602859 67 36 C65.63771768 35.31961707 64.27575822 34.63858743 62.9140625 33.95703125 C62.21152344 33.60576172 61.50898437 33.25449219 60.78515625 32.89257812 C57.5234375 31.26171875 54.26171875 29.63085937 51 28 C51 27.34 51 26.68 51 26 C50.175 25.938125 49.35 25.87625 48.5 25.8125 C44.64043564 24.9165297 42.17884438 23.43958407 38.9296875 21.25390625 C37.00434874 20.0028258 35.06168329 19.00732435 33 18 C31.41420211 17.12947459 29.83114021 16.25395682 28.25 15.375 C21.53258712 11.69534045 14.68102581 8.2977219 7.81787109 4.90087891 C5.20835946 3.60768821 2.60409068 2.30406402 0 1 C0 0.67 0 0.34 0 0 Z " fill="#FEFEFE" transform="translate(57,0)"/>
<path d="M0 0 C0.74958984 0.01353516 1.49917969 0.02707031 2.27148438 0.04101562 C4.11879767 0.07631461 5.96574066 0.13012083 7.8125 0.1875 C8.1425 0.8475 8.4725 1.5075 8.8125 2.1875 C7.86375 2.93 6.915 3.6725 5.9375 4.4375 C3.49121071 6.49145987 1.78841254 8.06457986 0.8125 11.1875 C0.64583333 13.6875 0.64583333 13.6875 0.8125 16.1875 C0.8125 17.5075 0.8125 18.8275 0.8125 20.1875 C2.33419328 23.77434844 3.77588879 26.68183599 7.375 28.4375 C11.74308315 29.39053632 15.44033798 28.90647776 19.8125 28.1875 C20.3075 26.7025 20.3075 26.7025 20.8125 25.1875 C21.4725 25.1875 22.1325 25.1875 22.8125 25.1875 C21.9341227 20.61993804 21.427017 18.66682326 17.6875 15.75 C16.73875 15.234375 15.79 14.71875 14.8125 14.1875 C16 12.625 16 12.625 17.8125 11.1875 C20.5 11.5 20.5 11.5 22.8125 12.1875 C22.8125 12.8475 22.8125 13.5075 22.8125 14.1875 C23.76125 14.39375 24.71 14.6 25.6875 14.8125 C28.8125 16.1875 28.8125 16.1875 30.1875 18.75 C31.02688653 23.36662589 31.97709679 28.85830642 29.8125 33.1875 C29.1525 33.1875 28.4925 33.1875 27.8125 33.1875 C27.8125 33.8475 27.8125 34.5075 27.8125 35.1875 C19.62820168 40.47319266 13.11298158 40.66936924 3.66796875 38.93359375 C-0.16509636 37.93206785 -2.92611954 36.41116849 -6.1875 34.1875 C-6.1875 33.5275 -6.1875 32.8675 -6.1875 32.1875 C-6.80625 31.94 -7.425 31.6925 -8.0625 31.4375 C-12.14825469 29.03411489 -12.80794389 24.51010915 -14.1875 20.1875 C-14.5175 19.1975 -14.8475 18.2075 -15.1875 17.1875 C-14.88478039 15.84688457 -14.54912029 14.51344105 -14.1875 13.1875 C-14.1875 11.8675 -14.1875 10.5475 -14.1875 9.1875 C-13.5275 9.1875 -12.8675 9.1875 -12.1875 9.1875 C-12.084375 8.259375 -11.98125 7.33125 -11.875 6.375 C-10.37195641 -0.59365663 -6.37843426 -0.21725671 0 0 Z " fill="#F6F5F3" transform="translate(151.1875,-0.1875)"/>
<path d="M0 0 C2.21724701 0.96840974 4.27127479 1.55862458 6.62890625 2.07421875 C10.12742922 2.96367374 12.32478504 4.07120769 15.31640625 6.01171875 C18.9075631 7.57709481 22.59278674 8.79937751 26.31640625 10.01171875 C26.31640625 10.67171875 26.31640625 11.33171875 26.31640625 12.01171875 C3.87640625 12.01171875 -18.56359375 12.01171875 -41.68359375 12.01171875 C-38.68359375 6.01171875 -38.68359375 6.01171875 -36.05859375 4.76171875 C-35.27484375 4.51421875 -34.49109375 4.26671875 -33.68359375 4.01171875 C-33.35359375 3.35171875 -33.02359375 2.69171875 -32.68359375 2.01171875 C-22.22023921 -3.96734099 -11.03172832 -5.04661729 0 0 Z " fill="#F6F5F3" transform="translate(183.68359375,120.98828125)"/>
</svg>
